<svg xmlns="http://www.w3.org/2000/svg" xmlns:xlink="http://www.w3.org/1999/xlink" xmlns:lucid="lucid" width="2536.38" height="1770.1"><g transform="translate(-80 500)" lucid:page-tab-id="0_0"><path d="M2000 600c0 359.04-291 650.1-650 650.1S700 959.04 700 600 991-50.1 1350-50.1s650 291.06 650 650.1z" fill-opacity="0"/><path d="M1998.92 635.72l-1.23 19.43-1.17 11.1m-2.32 20.3l-3.33 22.68-1.45 7.57m-3.87 20.05l-5.94 25.34-1.23 4.43m-5.5 19.67l-.53 1.92-8.35 25.7-.57 1.5m-7.12 19.16l-1.73 4.67-9.94 23.64m-8.64 18.5l-3.46 7.32-10.44 19.98m-10.05 17.78l-5.7 9.86-10.3 16.25m-11.38 16.94l-8.5 12.22-9.52 12.55m-12.64 16.05l-11.8 14.27-8.1 9m-13.82 15.03l-15.57 15.9-6.1 5.74m-14.93 13.93L1764 1101.2l-3.65 2.9m-16 12.68l-1.77 1.4-22.1 16.06-.88.58m-17.02 11.3l-4.8 3.2-21.27 12.88m-17.84 9.92l-8 4.4-19.26 9.56m-18.56 8.52l-11.2 4.98-17.08 6.77m-19.17 7.06l-14.4 5.02-14.74 4.45m-19.65 5.55l-17.63 4.52-12.15 2.6m-20.02 4l-21.06 3.56-9.2 1.16m-20.28 2.46l-24.84 2.08-5.7.24m-20.4.85l-1.45.05-13.87.15-15.3-.32m-20.42-.76l-19.4-1.23-11.13-1.18m-20.3-2.3l-22.63-3.35-7.62-1.45m-20.05-3.88l-25.27-5.92-4.5-1.26m-19.67-5.5l-1.84-.5-25.68-8.35-1.6-.6m-19.15-7.1l-4.58-1.7-23.74-10m-18.5-8.64l-7.2-3.4-20.1-10.5m-17.76-10.04l-9.75-5.63-16.37-10.4m-16.96-11.38l-12.1-8.4-12.66-9.62m-16.02-12.64l-14.16-11.72-9.1-8.2m-15.04-13.83l-15.8-15.45-5.83-6.22m-13.93-14.93l-16.87-19.55-3-3.77m-12.68-16l-1.3-1.67-16.07-22.1-.67-1m-11.3-17l-3.12-4.7-12.94-21.38m-9.92-17.85l-4.33-7.88-9.6-19.4m-8.53-18.55l-4.93-11.1-6.8-17.2m-7.06-19.15l-5-14.3-4.46-14.83m-5.55-19.66l-4.5-17.56-2.6-12.22m-4-20.02l-3.56-21-1.16-9.26m-2.46-20.28l-2.08-24.82-.24-5.72m-.85-20.4l-.05-1.45L700 600l.32-15.3m.76-20.42l1.23-19.43 1.17-11.1m2.32-20.3l3.33-22.68 1.45-7.57m3.87-20.05l5.94-25.34 1.23-4.43m5.5-19.67l.53-1.92 8.35-25.7.57-1.5m7.12-19.16l1.73-4.67 9.94-23.64m8.64-18.5l3.46-7.32 10.44-19.98m10.05-17.78l5.7-9.86 10.3-16.25m11.38-16.94l8.5-12.22 9.52-12.55M846 189.64l11.8-14.27 8.1-9m13.82-15.03l15.57-15.9 6.1-5.74m14.93-13.93L936 98.8l3.65-2.9m16-12.68l1.77-1.4 22.1-16.06.88-.58m17.02-11.3l4.8-3.2 21.27-12.88m17.84-9.92l8-4.4 19.26-9.56m18.56-8.52l11.2-4.98 17.08-6.77m19.17-7.06l14.4-5.02 14.74-4.45m19.65-5.55l17.63-4.52 12.15-2.6m20.02-4l21.06-3.56 9.2-1.16m20.28-2.46l24.84-2.08 5.7-.24m20.4-.85l1.45-.05 13.87-.15 15.3.32m20.42.76l19.4 1.23 11.13 1.18m20.3 2.3l22.63 3.35 7.62 1.45m20.05 3.88l25.27 5.92 4.5 1.26m19.67 5.5l1.84.5 25.68 8.35 1.6.6m19.15 7.1l4.58 1.7 23.74 10m18.5 8.64l7.2 3.4 20.1 10.5m17.76 10.04l9.75 5.63 16.37 10.4m16.96 11.38l12.1 8.4 12.66 9.62m16.02 12.64l14.16 11.72 9.1 8.2m15.04 13.83l15.8 15.45 5.83 6.22m13.93 14.93l16.87 19.55 3 3.77m12.68 16l1.3 1.67 16.07 22.1.67 1m11.3 17l3.12 4.7 12.94 21.38m9.92 17.85l4.33 7.88 9.6 19.4m8.53 18.55l4.93 11.1 6.8 17.2m7.06 19.15l5 14.3 4.46 14.83m5.55 19.66l4.5 17.56 2.6 12.22m4 20.02l3.56 21 1.16 9.26m2.46 20.28l2.08 24.82.24 5.72m.85 20.4l.05 1.45.15 13.87-.32 15.3" stroke="#fcc438" stroke-width="10" fill="none"/><path d="M800 505.8c0-3.3 2.7-6 6-6h288c3.3 0 6 2.7 6 6v188c0 3.32-2.7 6-6 6H806c-3.3 0-6-2.68-6-6z" fill="#3aa6dd"/><use xlink:href="#a" transform="matrix(1,0,0,1,812,511.80156396503776) translate(60.39814814814817 96.22222222222221)"/><path d="M345 600h419.55" stroke="#de5f85" stroke-width="10" fill="none"/><path d="M345.13 605h-5.3l.17-5-.18-5h5.3" fill="#de5f85"/><path d="M783.82 600l-14.27 4.63v-9.27z" stroke="#de5f85" stroke-width="10" fill="#de5f85"/><path d="M1469.12 519.8c16.57 0 30 35.82 30 80s-13.43 80-30 80h-240c-16.57 0-30-35.82-30-80s13.43-80 30-80z" stroke="#0c7cba" stroke-width="3" fill="#3aa6dd"/><path d="M1469.12 679.8c-16.57 0-30-35.82-30-80s13.43-80 30-80" stroke="#0c7cba" stroke-width="3" fill="none"/><path d="M1105 599.8h57.18" stroke="#3aa6dd" stroke-width="10" fill="none"/><path d="M1105.13 604.8H1100v-10h5.13" fill="#3aa6dd"/><path d="M1181.44 599.8l-14.26 4.64v-9.27z" stroke="#3aa6dd" stroke-width="10" fill="#3aa6dd"/><path d="M1600 505.8c0-3.3 2.7-6 6-6h288c3.3 0 6 2.7 6 6v188c0 3.32-2.7 6-6 6h-288c-3.3 0-6-2.68-6-6z" fill="#3aa6dd"/><use xlink:href="#b" transform="matrix(1,0,0,1,1612,511.80156396503776) translate(67.33333333333337 94.44444444444443)"/><path d="M1595 599.8h-58.93" stroke="#3aa6dd" stroke-width="10" fill="none"/><path d="M1600 604.8h-5.13v-10h5.13" fill="#3aa6dd"/><path d="M1516.8 599.8l14.27-4.63v9.27z" stroke="#3aa6dd" stroke-width="10" fill="#3aa6dd"/><path d="M345 330h219c3.3 0 6 2.7 6 6v257.8c0 3.32 2.7 6 6 6h188.55" stroke="#de5f85" stroke-width="10" fill="none"/><path d="M345.13 335h-5.3l.17-5-.18-5h5.3" fill="#de5f85"/><path d="M783.82 599.8l-14.27 4.64v-9.27z" stroke="#de5f85" stroke-width="10" fill="#de5f85"/><path d="M1440 459.82c0 11.04-40.3 19.98-90 19.98s-90-8.94-90-19.98V299.98c0-11.03 40.3-19.98 90-19.98s90 8.95 90 19.98z" stroke="#0c7cba" stroke-width="3" fill="#3aa6dd"/><path d="M1440 299.98c0 11.03-40.3 19.98-90 19.98s-90-8.95-90-19.98" stroke="#0c7cba" stroke-width="3" fill="none"/><path d="M1191.6-265.8c-34.8 0-63-25.6-63-57.2 0-25.27 17.05-46.58 43.53-54.4-1.53-74.3 103.47-88.6 145.47-60 21-42.9 126-28.6 126 14.3 63-14.3 126 42.9 84 114.4 42 57.2 0 128.7-84 100.1-21 37.18-105 37.18-126 0-42 28.6-126 14.3-126-57.2z" stroke="#5e5e5e" stroke-width="3" fill="#c1e4f7"/><path d="M292 260c26.5 0 48 31.34 48 70s-21.5 70-48 70H148c-26.5 0-48-31.34-48-70s21.5-70 48-70z" fill="#de5f85"/><use xlink:href="#c" transform="matrix(1,0,0,1,105,265) translate(4.580246913580297 73.13194444444443)"/><use xlink:href="#d" transform="matrix(1,0,0,1,105,265) translate(148.38271604938268 73.13194444444443)"/><path d="M292 800c26.5 0 48 31.34 48 70s-21.5 70-48 70H148c-26.5 0-48-31.34-48-70s21.5-70 48-70z" fill="#de5f85"/><use xlink:href="#e" transform="matrix(1,0,0,1,105,805) translate(24.382716049382736 73.13194444444443)"/><use xlink:href="#f" transform="matrix(1,0,0,1,105,805) translate(103.09876543209876 73.13194444444443)"/><path d="M345 870h219c3.3 0 6-2.7 6-6V605.8c0-3.3 2.7-6 6-6h188.55" stroke="#de5f85" stroke-width="10" fill="none"/><path d="M345.13 875h-5.3l.17-5-.18-5h5.3" fill="#de5f85"/><path d="M783.82 599.8l-14.27 4.64v-9.27z" stroke="#de5f85" stroke-width="10" fill="#de5f85"/><path d="M292 530c26.5 0 48 31.34 48 70s-21.5 70-48 70H148c-26.5 0-48-31.34-48-70s21.5-70 48-70z" fill="#de5f85"/><use xlink:href="#g" transform="matrix(1,0,0,1,105,535) translate(35.09876543209879 73.13194444444443)"/><path d="M1133.72-474.2c.85-3.2 4.23-5.8 7.54-5.8h161.34c3.3 0 5.3 2.6 4.45 5.8l-23.58 88.4c-.85 3.2-4.23 5.8-7.54 5.8H1114.6c-3.32 0-5.3-2.6-4.46-5.8z" stroke="#5e5e5e" stroke-width="3" fill="#b2d6ef"/><use xlink:href="#h" transform="matrix(1,0,0,1,1113.5955751240208,-475) translate(38.88154320987658 28.444444444444436)"/><use xlink:href="#i" transform="matrix(1,0,0,1,1113.5955751240208,-475) translate(36.869197530864206 71.11111111111109)"/><path d="M1433.72-474.2c.85-3.2 4.23-5.8 7.54-5.8h161.34c3.3 0 5.3 2.6 4.45 5.8l-23.58 88.4c-.85 3.2-4.23 5.8-7.54 5.8H1414.6c-3.32 0-5.3-2.6-4.46-5.8z" stroke="#5e5e5e" stroke-width="3" fill="#b2d6ef"/><use xlink:href="#j" transform="matrix(1,0,0,1,1413.5955751240208,-475) translate(61.548209876543226 28.444444444444436)"/><use xlink:href="#k" transform="matrix(1,0,0,1,1413.5955751240208,-475) translate(22.05438271604941 71.11111111111109)"/><path d="M950 494.8V385.9c0-3.3 2.7-6 6-6h267.05" stroke="#3aa6dd" stroke-width="10" fill="none"/><path d="M955 499.8h-10v-5.13h10" fill="#3aa6dd"/><path d="M1242.32 379.9l-14.27 4.64v-9.27z" stroke="#3aa6dd" stroke-width="10" fill="#3aa6dd"/><path d="M1750 494.8V385.9c0-3.3-2.7-6-6-6h-267.05" stroke="#3aa6dd" stroke-width="10" fill="none"/><path d="M1755 499.8h-10v-5.13h10" fill="#3aa6dd"/><path d="M1457.68 379.9l14.27-4.63v9.27z" stroke="#3aa6dd" stroke-width="10" fill="#3aa6dd"/><path d="M2549.1 140c26.1 0 47.28 31.34 47.28 70s-21.17 70-47.28 70h-141.82c-26.1 0-47.28-31.34-47.28-70s21.17-70 47.28-70z" fill="#834187"/><use xlink:href="#l" transform="matrix(1,0,0,1,2365,145) translate(15.969135802469182 73.13194444444443)"/><path d="M2549.1 400c26.1 0 47.28 31.34 47.28 70s-21.17 70-47.28 70h-141.82c-26.1 0-47.28-31.34-47.28-70s21.17-70 47.28-70z" fill="#834187"/><use xlink:href="#m" transform="matrix(1,0,0,1,2365,405) translate(34.635802469135825 73.13194444444443)"/><path d="M2549.1 660c26.1 0 47.28 31.34 47.28 70s-21.17 70-47.28 70h-141.82c-26.1 0-47.28-31.34-47.28-70s21.17-70 47.28-70z" fill="#834187"/><use xlink:href="#n" transform="matrix(1,0,0,1,2365,665) translate(56.216049382716065 73.13194444444443)"/><path d="M1905 599.8h219c3.3 0 6-2.68 6-6V216c0-3.3 2.7-6 6-6h188.55" stroke="#834187" stroke-width="10" fill="none"/><path d="M1905.13 604.8H1900v-10h5.13" fill="#834187"/><path d="M2343.82 210l-14.27 4.64v-9.28z" stroke="#834187" stroke-width="10" fill="#834187"/><path d="M2010 600h114c3.3 0 6-2.7 6-6V476c0-3.3 2.7-6 6-6h188.55" stroke="#834187" stroke-width="10" fill="none"/><path d="M2010.13 605h-5.23l.1-4.97-.05-5.03h5.18" fill="#834187"/><path d="M2343.82 470l-14.27 4.64v-9.28z" stroke="#834187" stroke-width="10" fill="#834187"/><path d="M1905 599.8h219c3.3 0 6 2.7 6 6V724c0 3.3 2.7 6 6 6h188.55" stroke="#834187" stroke-width="10" fill="none"/><path d="M1905.13 604.8H1900v-10h5.13" fill="#834187"/><path d="M2343.82 730l-14.27 4.64v-9.28z" stroke="#834187" stroke-width="10" fill="#834187"/><path d="M1348.86-440l-.88 3.02v86.7l.88.9 40.27-23.86-40.27-66.76z" stroke="#000" stroke-opacity="0" fill="#343434"/><path d="M1348.86-440l-40.26 66.76 40.26 23.87V-440z" stroke="#000" stroke-opacity="0" fill="#8c8c8c"/><path d="M1348.86-341.77l-.48.53v30.95l.48 1.45 40.27-56.8-40.27 23.88z" stroke="#000" stroke-opacity="0" fill="#3c3c3b"/><path d="M1348.86-308.85v-32.92l-40.26-23.87 40.26 56.8z" stroke="#000" stroke-opacity="0" fill="#8c8c8c"/><path d="M1348.86-349.37l40.27-23.87-40.27-18.23v42.1z" stroke="#000" stroke-opacity="0" fill="#141414"/><path d="M1308.6-373.24l40.26 23.87v-42.1l-40.26 18.23z" stroke="#000" stroke-opacity="0" fill="#393939"/><path d="M1350 273.5v-421.7" stroke="#3aa6dd" stroke-width="10" fill="none"/><path d="M1355 278.64l-5-.14-5 .04v-5.17h10" fill="#3aa6dd"/><path d="M1350-167.48l4.64 14.27h-9.28z" stroke="#3aa6dd" stroke-width="10" fill="#3aa6dd"/><path d="M1200-293.52c0-3.3 2.7-6 6-6h288c3.3 0 6 2.7 6 6v83.34c0 3.3-2.7 6-6 6h-288c-3.3 0-6-2.7-6-6z" stroke="#000" stroke-opacity="0" stroke-width="3" fill="#fff" fill-opacity="0"/><use xlink:href="#o" transform="matrix(1,0,0,1,1205,-294.5156677545521) translate(63.17283950617286 28.444444444444436)"/><use xlink:href="#p" transform="matrix(1,0,0,1,1205,-294.5156677545521) translate(52.35802469135807 71.11111111111109)"/><path d="M1000.86 710.35l-4.33-2.68c0-.42-.1-.83-.1-1.24l3.7-3.5c.42-.42.52-.94.42-1.35-.1-.52-.4-.93-.93-1.14l-4.74-1.75c-.1-.42-.2-.84-.42-1.25l3-4.12c.3-.42.4-1.04.2-1.45-.2-.52-.62-.82-1.13-.93l-5.06-.82c-.2-.42-.4-.73-.62-1.14l2.17-4.65c.2-.4.1-1.03-.1-1.45-.3-.4-.83-.6-1.34-.6l-5.06.2c-.3-.42-.62-.73-.83-1.04l1.13-4.95c.1-.5 0-1.02-.4-1.33-.32-.42-.84-.52-1.35-.42l-4.96 1.14c-.3-.32-.72-.53-1.03-.84l.2-5.05c0-.5-.2-1.02-.62-1.33-.52-.2-1.03-.3-1.55-.1l-4.54 2.16c-.42-.2-.83-.4-1.14-.62l-.83-5.04c-.1-.52-.4-.93-.93-1.14-.5-.2-1.03-.1-1.44.2l-4.13 3c-.4-.2-.82-.3-1.23-.4l-1.76-4.76c-.2-.52-.62-.83-1.13-.93-.4-.1-1.02 0-1.33.4l-3.5 3.73c-.42 0-.84-.1-1.25-.1l-2.68-4.34c-.2-.4-.72-.72-1.24-.72s-1.03.3-1.24.72l-2.68 4.34c-.4 0-.93.1-1.34.1l-3.4-3.72c-.42-.4-.93-.5-1.45-.4-.53.1-.94.4-1.04.92L937 666.7c-.4.1-.72.2-1.13.42l-4.13-3c-.4-.3-1.03-.4-1.44-.2-.52.2-.83.62-.93 1.14l-.83 5.05c-.4.22-.72.42-1.13.63l-4.64-2.17c-.4-.2-.92-.1-1.44.1-.4.32-.62.83-.62 1.35l.2 5.06c-.4.3-.7.52-1.02.83l-4.96-1.15c-.5-.1-1.03 0-1.44.42-.3.3-.52.82-.3 1.34l1.13 4.96c-.3.3-.5.62-.82 1.03l-5.06-.2c-.5 0-1.03.2-1.34.6-.3.42-.3 1.04-.1 1.45l2.17 4.64c-.2.4-.42.7-.62 1.13l-5.06.82c-.5.1-.93.4-1.13.93-.2.4-.1 1.03.2 1.45l2.9 4.12c-.1.4-.2.83-.32 1.24l-4.74 1.74c-.52.2-.83.62-.93 1.14-.1.4 0 .93.4 1.34l3.73 3.5c0 .42-.1.83-.1 1.25l-4.34 2.68c-.4.2-.72.72-.72 1.24 0 .5.3 1.02.72 1.22l4.33 2.7c0 .4.1.8.1 1.33l-3.7 3.4c-.42.42-.52.93-.42 1.45.1.4.4.93.93 1.03l4.74 1.75.3 1.24-2.88 4.13c-.3.4-.4 1.03-.2 1.44.2.5.62.82 1.13.92l5.06.83c.2.4.4.72.62 1.13l-2.17 4.64c-.2.42-.1 1.04.1 1.45.3.4.83.62 1.34.62l5.06-.22c.3.4.52.72.83 1.03l-1.13 4.97c-.1.5 0 1.03.4 1.34.32.42.84.52 1.35.42l4.96-1.14c.3.3.6.52 1.03.83l-.2 5.07c0 .5.2 1.03.62 1.34.4.2 1.03.32 1.44.1l4.65-2.16c.42.2.73.42 1.14.62l.83 5.06c.1.5.4.93.93 1.13.4.2 1.03.1 1.44-.2l4.13-2.9c.4.1.82.2 1.23.32l1.76 4.74c.2.53.62.84 1.03.94.5.1 1.02 0 1.43-.4l3.5-3.73c.42 0 .84.12 1.25.12l2.68 4.33c.2.4.72.72 1.24.72s1.03-.3 1.24-.72l2.68-4.33c.4 0 .83-.1 1.34-.1l3.4 3.7c.42.42.93.52 1.45.42.42-.1.94-.4 1.04-.93l1.76-4.73 1.23-.3 4.13 2.88c.4.3 1.03.4 1.44.2.52-.2.83-.62.93-1.13l.83-5.06c.4-.2.72-.4 1.13-.62l4.64 2.17c.4.22 1.03.1 1.44-.1.4-.3.62-.82.62-1.33l-.2-5.06c.4-.3.7-.5 1.02-.82l4.96 1.14c.5.1 1.03 0 1.44-.4.3-.32.52-.84.3-1.35l-1.13-4.96c.3-.3.5-.6.82-1.02l5.06.2c.5 0 1.03-.2 1.34-.6.3-.42.3-1.04.1-1.46l-2.17-4.64c.2-.4.42-.72.62-1.13l5.06-.83c.5-.1.93-.4 1.13-.93.2-.42.1-1.04-.2-1.45l-2.9-4.13c.1-.4.2-.82.32-1.24l4.74-1.75c.52-.1.83-.62.93-1.03.1-.52 0-1.03-.4-1.45l-3.73-3.4c0-.52.1-.93.1-1.34l4.34-2.68c.4-.2.72-.72.72-1.23 0-.53-.3-1.05-.72-1.25zm-29 36c-1.64-.4-2.67-2.06-2.36-3.7.4-1.66 1.96-2.7 3.6-2.38 1.66.4 2.8 2.06 2.38 3.7-.3 1.66-1.96 2.7-3.6 2.4zm-1.43-10c-1.55-.3-3 .62-3.3 2.16l-1.55 7.13c-4.75 2.17-10.1 3.4-15.58 3.4-5.67 0-11.04-1.23-15.9-3.5l-1.53-7.22c-.3-1.44-1.86-2.47-3.3-2.05l-6.4 1.34c-1.14-1.25-2.27-2.5-3.2-3.93h30.85c.3 0 .5 0 .5-.3V722.4c0-.3-.2-.4-.5-.4h-9.08v-6.93h9.8c.82 0 4.74.2 5.98 5.15.4 1.55 1.24 6.5 1.86 8.05.5 1.86 2.9 5.37 5.36 5.37h15.48c.1 0 .3 0 .5-.1-1.02 1.54-2.26 2.88-3.5 4.12l-6.5-1.35zm-42.7 9.8c-1.66.4-3.3-.72-3.62-2.37-.4-1.65.62-3.3 2.28-3.6 1.75-.43 3.3.7 3.7 2.36.32 1.65-.7 3.3-2.36 3.6zm-11.77-47.46c.72 1.54 0 3.4-1.55 4.12-1.54.62-3.3 0-4.02-1.55-.72-1.55 0-3.4 1.55-4.13 1.55-.62 3.3.1 4.03 1.55zm-3.62 8.55l6.6-2.9c1.45-.6 2.07-2.26 1.45-3.7l-1.35-3.1h5.37v24.04H913.7c-1.05-3.3-1.46-6.7-1.46-10.32 0-1.34 0-2.8.2-4.03zm29-2.37v-7.02h12.8c.6 0 4.63.73 4.63 3.72 0 2.48-3.1 3.3-5.57 3.3h-11.87zm46.2 6.4c0 .93 0 1.85-.1 2.78h-3.8c-.42 0-.52.3-.52.73v1.74c0 4.13-2.38 5.05-4.44 5.26-1.96.3-4.23-.82-4.44-1.96-1.13-6.6-3.1-7.94-6.2-10.42 3.83-2.37 7.75-5.88 7.75-10.73 0-5.17-3.52-8.37-5.9-9.9-3.4-2.28-7.1-2.7-8.14-2.7h-40.03c5.47-6.08 12.9-10.3 21.15-11.97l4.75 4.96c1.03 1.12 2.78 1.23 3.92.1l5.26-5.07c11.05 2.07 20.44 8.98 25.9 18.47l-3.6 8.15c-.73 1.45 0 3.1 1.33 3.72l7.02 3.1c.1 1.23.2 2.47.2 3.7zM947.53 670c1.24-1.13 3.2-1.13 4.34.1 1.23 1.25 1.13 3.2-.1 4.34-1.14 1.14-3.1 1.14-4.34-.1-1.13-1.24-1.03-3.2.1-4.33zm35.9 28.9c.73-1.55 2.48-2.27 4.03-1.55 1.55.62 2.27 2.47 1.65 4.02-.72 1.55-2.58 2.27-4.13 1.55-1.54-.62-2.16-2.48-1.54-4.02z" stroke="#000" stroke-opacity="0" stroke-width="1.36"/><path d="M1395.16 605.94c-4.4 0-8.4 1.93-11.06 5l-7-4.9c.77-2.03 1.2-4.2 1.2-6.47 0-2.27-.43-4.43-1.13-6.47l6.93-4.9c2.73 3.08 6.65 5.12 11.06 5.12 8.2 0 14.84-6.7 14.84-14.9 0-8.17-6.65-14.76-14.84-14.76-8.12 0-14.77 6.6-14.77 14.77 0 1.48.2 2.96.62 4.2l-7 4.9c-2.87-3.53-7.07-6.14-11.83-6.82v-8.4c6.7-1.37 11.75-7.4 11.75-14.55 0-8.18-6.65-14.78-14.84-14.78-8.1 0-14.76 6.6-14.76 14.78 0 7.05 4.9 12.96 11.48 14.43v8.53c-8.96 1.6-15.82 9.44-15.82 18.87 0 9.44 6.93 17.28 15.96 18.87v8.87c-6.65 1.48-11.62 7.4-11.62 14.55 0 8.2 6.65 14.78 14.77 14.78 8.2 0 14.85-6.6 14.85-14.78 0-7.16-4.97-13.07-11.62-14.54v-8.86c4.76-.9 8.6-3.07 11.62-6.82l7 5c-.35 1.25-.56 2.62-.56 4.1 0 8.18 6.64 14.88 14.76 14.88 8.2 0 14.84-6.7 14.84-14.9 0-8.17-6.65-14.76-14.84-14.76zm0-34.67c4 0 7.2 3.2 7.2 7.16 0 3.98-3.2 7.16-7.2 7.16-3.92 0-7.14-3.2-7.14-7.17 0-3.97 3.22-7.16 7.14-7.16zm-43.2-13.52c0-3.86 3.23-7.16 7.15-7.16 4 0 7.22 3.3 7.22 7.15 0 3.98-3.22 7.27-7.2 7.27-3.93 0-7.15-3.3-7.15-7.27zm14.36 84.1c0 3.87-3.22 7.16-7.2 7.16-3.93 0-7.15-3.28-7.15-7.15 0-3.97 3.22-7.27 7.14-7.27 4 0 7.22 3.3 7.22 7.27zm-7.2-32.27c-5.54 0-10.02-4.55-10.02-10 0-5.57 4.48-10 10-10 5.54 0 10.1 4.43 10.1 10 0 5.45-4.56 10-10.1 10zm36.04 18.3c-3.92 0-7.14-3.2-7.14-7.17 0-3.96 3.22-7.15 7.14-7.15 4 0 7.2 3.2 7.2 7.16 0 4-3.2 7.17-7.2 7.17z" stroke="#000" stroke-opacity="0" stroke-width=".6" fill="#231f20"/><path d="M1230 461h237.35v-41.2H1230V461z" stroke="#000" stroke-opacity="0" fill="#c4373a"/><path d="M1256.35 436.9l-8.8 4 8.8 4v-8zm-11.16 4.86l-2.15-.86 2.14-1 17.8-7.94v2.1l-4.76 2.06v9.56l4.75 2.06v2l-17.8-7.98zM1272.96 432.16h12.82v1.8h-10.68v5.95h9.5v1.86h-9.5v6.1h10.68v1.8h-12.82v-17.5zM1303.34 441.1c.7 0 1.2-.08 1.9-.25.47-.16.95-.4 1.42-.74.24-.28.72-.65.95-1.1.25-.45.25-.95.25-1.52v-.04c0-1.08-.24-1.94-1.2-2.56-.7-.58-1.9-.9-3.3-.9h-5.47v7.12h5.46zm-7.36-8.94h7.6c.95 0 1.9.17 2.85.45.95.34 1.66.76 2.13 1.3.48.45.7.94.95 1.52.25.6.5 1.23.5 1.93v.04c0 .74-.25 1.35-.5 1.97-.23.58-.46 1.07-.94 1.48-.47.42-.95.8-1.66 1.08-.47.24-1.2.45-1.9.57l5.46 7.17h-2.37l-5.23-6.8h-5v6.8h-1.9v-17.5zM1328.5 448.15c.95 0 1.9-.17 2.6-.58.96-.37 1.67-.86 2.38-1.52.48-.66.95-1.4 1.43-2.27.25-.87.48-1.8.48-2.8v-.04c0-1.03-.23-1.98-.47-2.85-.47-.87-.94-1.65-1.65-2.27-.48-.66-1.2-1.2-2.14-1.57-.7-.37-1.65-.57-2.84-.57-.95 0-1.9.15-2.6.56-.96.37-1.67.87-2.15 1.53-.7.65-1.17 1.4-1.4 2.25-.48.87-.72 1.82-.72 2.8v.1c0 .98.24 1.92.7 2.8.25.85.72 1.64 1.43 2.25.5.66 1.2 1.2 2.15 1.57.95.37 1.66.58 2.85.58m-.24 1.8c-1.18 0-2.37-.2-3.56-.7-1.2-.48-2.13-1.14-2.85-1.97-.7-.82-1.42-1.77-1.9-2.88-.23-1.07-.47-2.23-.47-3.42v-.04c0-1.24.24-2.4.47-3.46.48-1.12 1.2-2.06 1.9-2.93.95-.82 1.9-1.48 2.85-1.98 1.2-.45 2.38-.7 3.8-.7 1.2 0 2.37.2 3.56.7 1.2.5 2.14 1.16 2.85 1.98.72.83 1.43 1.77 1.9 2.9.48 1.06.48 2.2.48 3.4.24.05.24.05 0 .1 0 1.18 0 2.34-.47 3.4-.47 1.12-1.18 2.07-1.9 2.9-.7.86-1.65 1.52-2.84 2-1.2.46-2.37.7-3.8.7M1353.66 449.92c-1.43 0-2.85-.2-4.04-.7-1.18-.45-2.13-1.16-3.32-2.1l1.42-1.44c.72.82 1.67 1.44 2.62 1.85.94.4 2.13.62 3.32.62 1.18 0 2.13-.3 2.85-.83.72-.57 1.2-1.27 1.2-2.14v-.04c0-.4-.24-.78-.24-1.1-.24-.34-.48-.63-.72-.88-.47-.3-.95-.53-1.42-.74-.7-.2-1.42-.4-2.37-.62-.95-.2-1.9-.5-2.6-.74-.73-.3-1.44-.66-1.9-1.03-.5-.4-.73-.86-.96-1.4-.25-.54-.5-1.2-.5-1.9v-.04c0-.7.25-1.32.5-1.9.22-.62.7-1.1 1.17-1.53.48-.4 1.2-.78 1.9-.98.7-.26 1.43-.4 2.38-.4 1.18 0 2.37.18 3.32.55.95.37 1.9.9 2.85 1.6l-1.2 1.53c-.94-.66-1.65-1.15-2.6-1.44-.7-.3-1.66-.45-2.6-.45-1.2 0-1.9.27-2.62.8-.7.55-.95 1.2-.95 2.03V437.67c.24.34.47.63.95.92.24.24.7.48 1.42.73.48.2 1.43.45 2.38.62 1.9.45 3.32 1.03 4.27 1.8.95.8 1.42 1.82 1.42 3.18v.04c0 .75-.25 1.45-.48 2.02-.24.6-.7 1.15-1.2 1.56-.46.45-1.18.78-1.9 1.03-.7.2-1.65.32-2.36.32M1375.97 441.68c.7 0 1.42-.08 2.13-.3.48-.15.95-.44 1.43-.77.47-.32.7-.73.95-1.23.24-.45.47-1 .47-1.56v-.04c0-1.23-.47-2.18-1.42-2.8-.7-.66-1.9-1-3.32-1h-4.5v7.72h4.27zm-6.4-9.52h6.64c.96 0 1.9.13 2.85.37.72.3 1.43.62 1.9 1.1.72.5 1.2 1.1 1.43 1.75.23.7.47 1.48.47 2.34v.04c0 .95-.24 1.78-.47 2.48-.48.74-.95 1.32-1.66 1.8-.48.5-1.2.83-2.14 1.08-.7.25-1.66.37-2.6.37h-4.28v6.17h-2.14v-17.5zM1392.82 432.16h1.9v17.5h-1.9v-17.5zM1405.87 432.16h2.14v10.47l9.98-10.47h2.6l-7.58 7.66 7.83 9.85h-2.38l-6.88-8.5-3.56 3.8v4.7h-2.13v-17.5zM1430.08 432.16h12.82v1.8h-10.92v5.95h20.18v1.86h-20.18v6.1h10.92v1.8h-12.82v-17.5z" stroke="#000" stroke-opacity="0" fill="#fff"/><path d="M1230 346c0-3.3 2.7-6 6-6h228c3.3 0 6 2.7 6 6v48c0 3.3-2.7 6-6 6h-228c-3.3 0-6-2.7-6-6z" stroke="#000" stroke-opacity="0" stroke-width="3" fill="#fff" fill-opacity="0"/><use xlink:href="#q" transform="matrix(1,0,0,1,1235,345) translate(61.76543209876546 31.569444444444436)"/><path d="M1200 558.13c0-3.3 2.7-6 6-6h149.75c3.32 0 6 2.7 6 6v83.34c0 3.3-2.68 6-6 6H1206c-3.3 0-6-2.7-6-6z" stroke="#000" stroke-opacity="0" stroke-width="3" fill="#fff" fill-opacity="0"/><use xlink:href="#r" transform="matrix(1,0,0,1,1205,557.1348972983711) translate(27.703703703703724 28.444444444444436)"/><use xlink:href="#s" transform="matrix(1,0,0,1,1205,557.1348972983711) translate(23.80246913580249 71.11111111111109)"/><path d="M1802.44 710.35l-4.33-2.68c0-.42-.1-.83-.1-1.24l3.72-3.5c.4-.42.52-.94.4-1.35-.1-.52-.4-.93-.92-1.14l-4.74-1.75c-.1-.42-.2-.84-.4-1.25l2.98-4.12c.3-.42.4-1.04.2-1.45-.2-.52-.6-.82-1.13-.93l-5.05-.82c-.2-.42-.4-.73-.6-1.14l2.15-4.65c.2-.4.1-1.03-.1-1.45-.3-.4-.83-.6-1.34-.6l-5.06.2c-.3-.42-.62-.73-.82-1.04l1.13-4.95c.12-.5 0-1.02-.4-1.33-.3-.42-.83-.52-1.34-.42l-4.95 1.14c-.3-.32-.72-.53-1.03-.84l.2-5.05c0-.5-.2-1.02-.6-1.33-.52-.2-1.04-.3-1.56-.1l-4.52 2.16c-.42-.2-.83-.4-1.14-.62l-.82-5.04c-.1-.52-.42-.93-.93-1.14-.53-.2-1.04-.1-1.46.2l-4.12 3c-.42-.2-.83-.3-1.24-.4l-1.76-4.76c-.2-.52-.6-.83-1.13-.93-.42-.1-1.04 0-1.35.4l-3.5 3.73c-.42 0-.83-.1-1.25-.1l-2.68-4.34c-.2-.4-.72-.72-1.24-.72-.5 0-1.03.3-1.24.72l-2.68 4.34c-.4 0-.93.1-1.34.1l-3.4-3.72c-.42-.4-.93-.5-1.45-.4-.5.1-.93.4-1.03.92l-1.86 4.75c-.4.1-.72.2-1.13.42l-4.13-3c-.4-.3-1.03-.4-1.44-.2-.52.2-.83.62-.93 1.14l-.83 5.05c-.4.22-.72.42-1.13.63l-4.65-2.17c-.42-.2-.93-.1-1.45.1-.4.32-.62.83-.62 1.35l.2 5.06c-.4.3-.7.52-1.02.83l-4.95-1.15c-.5-.1-1.03 0-1.44.42-.3.3-.5.82-.3 1.34l1.13 4.96c-.32.3-.53.62-.84 1.03l-5.05-.2c-.5 0-1.02.2-1.33.6-.3.42-.3 1.04-.1 1.45l2.16 4.64c-.2.4-.4.7-.62 1.13l-5.04.82c-.52.1-.93.4-1.14.93-.2.4-.1 1.03.2 1.45l2.9 4.12-.3 1.24-4.76 1.74c-.52.2-.83.62-.93 1.14-.1.4 0 .93.4 1.34l3.73 3.5c0 .42-.1.83-.1 1.25l-4.34 2.68c-.4.2-.72.72-.72 1.24 0 .5.3 1.02.72 1.22l4.34 2.7c0 .4.1.8.1 1.33l-3.72 3.4c-.4.42-.5.93-.4 1.45.1.4.4.93.92 1.03l4.75 1.75c.1.42.2.83.32 1.24l-2.9 4.13c-.3.4-.4 1.03-.2 1.44.2.5.62.82 1.14.92l5.05.83c.22.4.42.72.63 1.13l-2.17 4.64c-.2.42-.1 1.04.1 1.45.32.4.83.62 1.35.62l5.06-.22c.3.4.52.72.83 1.03l-1.15 4.97c-.1.5 0 1.03.42 1.34.3.42.82.52 1.34.42l4.96-1.14c.3.3.62.52 1.03.83l-.22 5.07c0 .5.2 1.03.62 1.34.42.2 1.03.32 1.45.1l4.64-2.16c.4.2.7.42 1.12.62l.83 5.06c.1.5.4.93.93 1.13.4.2 1.03.1 1.44-.2l4.13-2.9c.4.1.82.2 1.24.32l1.74 4.74c.2.53.62.84 1.03.94.52.1 1.03 0 1.45-.4l3.5-3.73c.42 0 .83.12 1.24.12l2.68 4.33c.2.4.73.72 1.24.72.52 0 1.03-.3 1.24-.72l2.68-4.33c.42 0 .83-.1 1.34-.1l3.4 3.7c.42.42.94.52 1.45.42.4-.1.92-.4 1.02-.93l1.76-4.73 1.24-.3 4.12 2.88c.42.3 1.03.4 1.45.2.5-.2.8-.62.92-1.13l.82-5.06c.4-.2.72-.4 1.14-.62l4.64 2.17c.4.22 1.03.1 1.44-.1.4-.3.62-.82.62-1.33l-.2-5.06c.4-.3.72-.5 1.03-.82l4.96 1.14c.5.1 1.03 0 1.44-.4.3-.32.52-.84.3-1.35l-1.12-4.96c.3-.3.5-.6.82-1.02l5.06.2c.5 0 1.03-.2 1.34-.6.3-.42.3-1.04.1-1.46l-2.16-4.64c.2-.4.4-.72.6-1.13l5.07-.83c.53-.1.94-.4 1.14-.93.2-.42.1-1.04-.2-1.45l-2.9-4.13.32-1.24 4.74-1.75c.52-.1.83-.62.93-1.03.1-.52 0-1.03-.4-1.45l-3.72-3.4c0-.52.1-.93.1-1.34l4.34-2.68c.42-.2.72-.72.72-1.23 0-.53-.3-1.05-.72-1.25zm-29 36c-1.64-.4-2.67-2.06-2.36-3.7.4-1.66 1.96-2.7 3.6-2.38 1.66.4 2.8 2.06 2.38 3.7-.3 1.66-1.96 2.7-3.6 2.4zm-1.43-10c-1.54-.3-2.98.62-3.3 2.16l-1.54 7.13c-4.75 2.17-10.1 3.4-15.58 3.4-5.67 0-11.04-1.23-15.9-3.5l-1.53-7.22c-.3-1.44-1.86-2.47-3.3-2.05l-6.4 1.34c-1.13-1.25-2.27-2.5-3.2-3.93h30.85c.3 0 .5 0 .5-.3V722.4c0-.3-.2-.4-.5-.4h-9.08v-6.93h9.8c.83 0 4.75.2 5.98 5.15.42 1.55 1.24 6.5 1.86 8.05.52 1.86 2.9 5.37 5.37 5.37h15.47c.1 0 .3 0 .52-.1-1.04 1.54-2.27 2.88-3.5 4.12l-6.5-1.35zm-42.7 9.8c-1.65.4-3.3-.72-3.6-2.37-.42-1.65.6-3.3 2.26-3.6 1.75-.43 3.3.7 3.7 2.36.32 1.65-.7 3.3-2.36 3.6zm-11.76-47.46c.72 1.54 0 3.4-1.55 4.12-1.56.62-3.3 0-4.03-1.55-.73-1.55 0-3.4 1.54-4.13 1.56-.62 3.32.1 4.04 1.55zm-3.6 8.55l6.6-2.9c1.43-.6 2.05-2.26 1.43-3.7l-1.34-3.1h5.37v24.04h-10.73c-1.03-3.3-1.45-6.7-1.45-10.32 0-1.34 0-2.8.2-4.03zm28.98-2.37v-7.02h12.8c.6 0 4.63.73 4.63 3.72 0 2.48-3.1 3.3-5.57 3.3h-11.86zm46.2 6.4c0 .93 0 1.85-.1 2.78h-3.8c-.42 0-.52.3-.52.73v1.74c0 4.13-2.37 5.05-4.44 5.26-1.96.3-4.23-.82-4.43-1.96-1.14-6.6-3.1-7.94-6.2-10.42 3.82-2.37 7.74-5.88 7.74-10.73 0-5.17-3.5-8.37-5.88-9.9-3.4-2.28-7.13-2.7-8.16-2.7h-40.02c5.46-6.08 12.9-10.3 21.14-11.97l4.75 4.96c1.04 1.12 2.8 1.23 3.93.1l5.26-5.07c11.03 2.07 20.42 8.98 25.9 18.47l-3.63 8.15c-.72 1.45 0 3.1 1.35 3.72l7 3.1c.1 1.23.22 2.47.22 3.7zm-40-41.27c1.22-1.13 3.18-1.13 4.32.1 1.24 1.25 1.13 3.2-.1 4.34-1.14 1.14-3.1 1.14-4.34-.1-1.13-1.24-1.03-3.2.1-4.33zm35.9 28.9c.7-1.55 2.46-2.27 4-1.55 1.56.62 2.28 2.47 1.66 4.02-.72 1.55-2.58 2.27-4.12 1.55-1.55-.62-2.17-2.48-1.55-4.02z" stroke="#000" stroke-opacity="0" stroke-width="1.36"/><path d="M2549.1 940c26.1 0 47.28 31.34 47.28 70s-21.17 70-47.28 70h-141.82c-26.1 0-47.28-31.34-47.28-70s21.17-70 47.28-70z" fill="#834187"/><g><use xlink:href="#t" transform="matrix(1,0,0,1,2365,945) translate(6.092592592592638 73.13194444444443)"/><use xlink:href="#u" transform="matrix(1,0,0,1,2365,945) translate(92.80864197530866 73.13194444444443)"/></g><path d="M1905 599.8h219c3.3 0 6 2.7 6 6V1004c0 3.3 2.7 6 6 6h188.55" stroke="#834187" stroke-width="10" fill="none"/><path d="M1905.13 604.8H1900v-10h5.13" fill="#834187"/><path d="M2343.82 1010l-14.27 4.64v-9.28z" stroke="#834187" stroke-width="10" fill="#834187"/><defs><path fill="#fff" d="M67-125c0 54 23 88 75 88 28 0 53-7 68-21v-34h-60v-39h108v91C232-14 192 4 140 4 58 4 20-42 15-125 8-236 126-280 215-234c19 10 29 26 37 47l-47 15c-11-23-29-39-63-39-53 1-75 33-75 86" id="v"/><path fill="#fff" d="M133-34C117-15 103 5 69 4 32 3 11-16 11-54c-1-60 55-63 116-61 1-26-3-47-28-47-18 1-26 9-28 27l-52-2c7-38 36-58 82-57s74 22 75 68l1 82c-1 14 12 18 25 15v27c-30 8-71 5-69-32zm-48 3c29 0 43-24 42-57-32 0-66-3-65 30 0 17 8 27 23 27" id="w"/><path fill="#fff" d="M115-3C79 11 28 4 28-45v-112H4v-33h27l15-45h31v45h36v33H77v99c-1 23 16 31 38 25v30" id="x"/><path fill="#fff" d="M185-48c-13 30-37 53-82 52C43 2 14-33 14-96s30-98 90-98c62 0 83 45 84 108H66c0 31 8 55 39 56 18 0 30-7 34-22zm-45-69c5-46-57-63-70-21-2 6-4 13-4 21h74" id="y"/><path fill="#fff" d="M231 0h-52l-39-155L100 0H48L-1-190h46L77-45c9-52 24-97 36-145h53l37 145 32-145h46" id="z"/><path fill="#fff" d="M123 10C108 53 80 86 19 72V37c35 8 53-11 59-39L3-190h52l48 148c12-52 28-100 44-148h51" id="A"/><g id="a"><use transform="matrix(0.10493827160493824,0,0,0.10493827160493824,0,0)" xlink:href="#v"/><use transform="matrix(0.10493827160493824,0,0,0.10493827160493824,29.382716049382708,0)" xlink:href="#w"/><use transform="matrix(0.10493827160493824,0,0,0.10493827160493824,50.37037037037035,0)" xlink:href="#x"/><use transform="matrix(0.10493827160493824,0,0,0.10493827160493824,62.858024691358004,0)" xlink:href="#y"/><use transform="matrix(0.10493827160493824,0,0,0.10493827160493824,83.84567901234566,0)" xlink:href="#z"/><use transform="matrix(0.10493827160493824,0,0,0.10493827160493824,113.22839506172836,0)" xlink:href="#w"/><use transform="matrix(0.10493827160493824,0,0,0.10493827160493824,134.21604938271602,0)" xlink:href="#A"/></g><path fill="#fff" d="M275 0h-61l-44-196L126 0H64L0-248h53L97-49l45-199h58l43 199 44-199h52" id="B"/><path fill="#fff" d="M110-194c64 0 96 36 96 99 0 64-35 99-97 99-61 0-95-36-95-99 0-62 34-99 96-99zm-1 164c35 0 45-28 45-65 0-40-10-65-43-65-34 0-45 26-45 65 0 36 10 65 43 65" id="C"/><path fill="#fff" d="M135-150c-39-12-60 13-60 57V0H25l-1-190h47c2 13-1 29 3 40 6-28 27-53 61-41v41" id="D"/><path fill="#fff" d="M147 0L96-86 75-71V0H25v-261h50v150l67-79h53l-66 74L201 0h-54" id="E"/><path fill="#fff" d="M137-138c1-29-70-34-71-4 15 46 118 7 119 86 1 83-164 76-172 9l43-7c4 19 20 25 44 25 33 8 57-30 24-41C81-84 22-81 20-136c-2-80 154-74 161-7" id="F"/><g id="b"><use transform="matrix(0.0987654320987654,0,0,0.0987654320987654,0,0)" xlink:href="#B"/><use transform="matrix(0.0987654320987654,0,0,0.0987654320987654,32.790123456790106,0)" xlink:href="#C"/><use transform="matrix(0.0987654320987654,0,0,0.0987654320987654,54.41975308641973,0)" xlink:href="#D"/><use transform="matrix(0.0987654320987654,0,0,0.0987654320987654,68.24691358024688,0)" xlink:href="#E"/><use transform="matrix(0.0987654320987654,0,0,0.0987654320987654,87.99999999999996,0)" xlink:href="#y"/><use transform="matrix(0.0987654320987654,0,0,0.0987654320987654,107.75308641975303,0)" xlink:href="#D"/><use transform="matrix(0.0987654320987654,0,0,0.0987654320987654,121.58024691358018,0)" xlink:href="#F"/></g><path fill="#fff" d="M24-248c93 1 206-16 204 79-1 75-69 88-152 82V0H24v-248zm52 121c47 0 100 7 100-41 0-47-54-39-100-39v80" id="G"/><path fill="#fff" d="M88-194c31-1 46 15 58 34l-1-101h50l1 261h-48c-2-10 0-23-3-31C134-8 116 4 84 4 32 4 16-41 15-95c0-56 19-97 73-99zm17 164c33 0 40-30 41-66 1-37-9-64-41-64s-38 30-39 65c0 43 13 65 39 65" id="H"/><path fill="#fff" d="M85 4C-2 5 27-109 22-190h50c7 57-23 150 33 157 60-5 35-97 40-157h50l1 190h-47c-2-12 1-28-3-38-12 25-28 42-61 42" id="I"/><path fill="#fff" d="M190-63c-7 42-38 67-86 67-59 0-84-38-90-98-12-110 154-137 174-36l-49 2c-2-19-15-32-35-32-30 0-35 28-38 64-6 74 65 87 74 30" id="J"/><g id="c"><use transform="matrix(0.0987654320987654,0,0,0.0987654320987654,0,0)" xlink:href="#G"/><use transform="matrix(0.0987654320987654,0,0,0.0987654320987654,23.703703703703695,0)" xlink:href="#D"/><use transform="matrix(0.0987654320987654,0,0,0.0987654320987654,37.53086419753085,0)" xlink:href="#C"/><use transform="matrix(0.0987654320987654,0,0,0.0987654320987654,59.16049382716047,0)" xlink:href="#H"/><use transform="matrix(0.0987654320987654,0,0,0.0987654320987654,80.7901234567901,0)" xlink:href="#I"/><use transform="matrix(0.0987654320987654,0,0,0.0987654320987654,102.41975308641972,0)" xlink:href="#J"/><use transform="matrix(0.0987654320987654,0,0,0.0987654320987654,122.17283950617279,0)" xlink:href="#x"/></g><path fill="#fff" d="M128 0H69L1-190h53L99-40l48-150h52" id="K"/><path fill="#fff" d="M25-224v-37h50v37H25zM25 0v-190h50V0H25" id="L"/><g id="d"><use transform="matrix(0.0987654320987654,0,0,0.0987654320987654,0,0)" xlink:href="#K"/><use transform="matrix(0.0987654320987654,0,0,0.0987654320987654,19.753086419753078,0)" xlink:href="#L"/><use transform="matrix(0.0987654320987654,0,0,0.0987654320987654,29.62962962962962,0)" xlink:href="#y"/><use transform="matrix(0.0987654320987654,0,0,0.0987654320987654,49.382716049382694,0)" xlink:href="#z"/></g><path fill="#fff" d="M199 0l-22-63H83L61 0H9l90-248h61L250 0h-51zm-33-102l-36-108c-10 38-24 72-36 108h72" id="M"/><path fill="#fff" d="M135-194c53 0 70 44 70 98 0 56-19 98-73 100-31 1-45-17-59-34 3 33 2 69 2 105H25l-1-265h48c2 10 0 23 3 31 11-24 29-35 60-35zM114-30c33 0 39-31 40-66 0-38-9-64-40-64-56 0-55 130 0 130" id="N"/><g id="e"><use transform="matrix(0.0987654320987654,0,0,0.0987654320987654,0,0)" xlink:href="#M"/><use transform="matrix(0.0987654320987654,0,0,0.0987654320987654,25.58024691358024,0)" xlink:href="#N"/><use transform="matrix(0.0987654320987654,0,0,0.0987654320987654,47.20987654320986,0)" xlink:href="#N"/></g><path fill="#fff" d="M135-194c87-1 58 113 63 194h-50c-7-57 23-157-34-157-59 0-34 97-39 157H25l-1-190h47c2 12-1 28 3 38 12-26 28-41 61-42" id="O"/><path fill="#fff" d="M25 0v-261h50V0H25" id="P"/><g id="f"><use transform="matrix(0.0987654320987654,0,0,0.0987654320987654,0,0)" xlink:href="#L"/><use transform="matrix(0.0987654320987654,0,0,0.0987654320987654,9.876543209876539,0)" xlink:href="#O"/><use transform="matrix(0.0987654320987654,0,0,0.0987654320987654,31.506172839506164,0)" xlink:href="#F"/><use transform="matrix(0.0987654320987654,0,0,0.0987654320987654,51.259259259259245,0)" xlink:href="#x"/><use transform="matrix(0.0987654320987654,0,0,0.0987654320987654,63.01234567901233,0)" xlink:href="#w"/><use transform="matrix(0.0987654320987654,0,0,0.0987654320987654,82.7654320987654,0)" xlink:href="#P"/><use transform="matrix(0.0987654320987654,0,0,0.0987654320987654,92.64197530864195,0)" xlink:href="#P"/></g><path fill="#fff" d="M114-157C55-157 80-60 75 0H25v-261h50l-1 109c12-26 28-41 61-42 86-1 58 113 63 194h-50c-7-57 23-157-34-157" id="Q"/><g id="g"><use transform="matrix(0.0987654320987654,0,0,0.0987654320987654,0,0)" xlink:href="#G"/><use transform="matrix(0.0987654320987654,0,0,0.0987654320987654,23.703703703703695,0)" xlink:href="#I"/><use transform="matrix(0.0987654320987654,0,0,0.0987654320987654,45.333333333333314,0)" xlink:href="#D"/><use transform="matrix(0.0987654320987654,0,0,0.0987654320987654,59.16049382716047,0)" xlink:href="#J"/><use transform="matrix(0.0987654320987654,0,0,0.0987654320987654,78.91358024691355,0)" xlink:href="#Q"/><use transform="matrix(0.0987654320987654,0,0,0.0987654320987654,100.54320987654317,0)" xlink:href="#w"/><use transform="matrix(0.0987654320987654,0,0,0.0987654320987654,120.29629629629626,0)" xlink:href="#F"/><use transform="matrix(0.0987654320987654,0,0,0.0987654320987654,140.04938271604934,0)" xlink:href="#y"/></g><path fill="#333" d="M24-248c93 1 206-16 204 79-1 75-69 88-152 82V0H24v-248zm52 121c47 0 100 7 100-41 0-47-54-39-100-39v80" id="R"/><path fill="#333" d="M133-34C117-15 103 5 69 4 32 3 11-16 11-54c-1-60 55-63 116-61 1-26-3-47-28-47-18 1-26 9-28 27l-52-2c7-38 36-58 82-57s74 22 75 68l1 82c-1 14 12 18 25 15v27c-30 8-71 5-69-32zm-48 3c29 0 43-24 42-57-32 0-66-3-65 30 0 17 8 27 23 27" id="S"/><path fill="#333" d="M135-150c-39-12-60 13-60 57V0H25l-1-190h47c2 13-1 29 3 40 6-28 27-53 61-41v41" id="T"/><path fill="#333" d="M115-3C79 11 28 4 28-45v-112H4v-33h27l15-45h31v45h36v33H77v99c-1 23 16 31 38 25v30" id="U"/><path fill="#333" d="M135-194c87-1 58 113 63 194h-50c-7-57 23-157-34-157-59 0-34 97-39 157H25l-1-190h47c2 12-1 28 3 38 12-26 28-41 61-42" id="V"/><path fill="#333" d="M185-48c-13 30-37 53-82 52C43 2 14-33 14-96s30-98 90-98c62 0 83 45 84 108H66c0 31 8 55 39 56 18 0 30-7 34-22zm-45-69c5-46-57-63-70-21-2 6-4 13-4 21h74" id="W"/><g id="h"><use transform="matrix(0.0987654320987654,0,0,0.0987654320987654,0,0)" xlink:href="#R"/><use transform="matrix(0.0987654320987654,0,0,0.0987654320987654,23.703703703703695,0)" xlink:href="#S"/><use transform="matrix(0.0987654320987654,0,0,0.0987654320987654,43.45679012345677,0)" xlink:href="#T"/><use transform="matrix(0.0987654320987654,0,0,0.0987654320987654,57.28395061728393,0)" xlink:href="#U"/><use transform="matrix(0.0987654320987654,0,0,0.0987654320987654,69.03703703703701,0)" xlink:href="#V"/><use transform="matrix(0.0987654320987654,0,0,0.0987654320987654,90.66666666666663,0)" xlink:href="#W"/><use transform="matrix(0.0987654320987654,0,0,0.0987654320987654,110.41975308641969,0)" xlink:href="#T"/></g><path fill="#333" d="M190-63c-7 42-38 67-86 67-59 0-84-38-90-98-12-110 154-137 174-36l-49 2c-2-19-15-32-35-32-30 0-35 28-38 64-6 74 65 87 74 30" id="X"/><path fill="#333" d="M110-194c64 0 96 36 96 99 0 64-35 99-97 99-61 0-95-36-95-99 0-62 34-99 96-99zm-1 164c35 0 45-28 45-65 0-40-10-65-43-65-34 0-45 26-45 65 0 36 10 65 43 65" id="Y"/><path fill="#333" d="M121-226c-27-7-43 5-38 36h38v33H83V0H34v-157H6v-33h28c-9-59 32-81 87-68v32" id="Z"/><path fill="#333" d="M25-224v-37h50v37H25zM25 0v-190h50V0H25" id="aa"/><path fill="#333" d="M195-6C206 82 75 100 31 46c-4-6-6-13-8-21l49-6c3 16 16 24 34 25 40 0 42-37 40-79-11 22-30 35-61 35-53 0-70-43-70-97 0-56 18-96 73-97 30 0 46 14 59 34l2-30h47zm-90-29c32 0 41-27 41-63 0-35-9-62-40-62-32 0-39 29-40 63 0 36 9 62 39 62" id="ab"/><g id="i"><use transform="matrix(0.0987654320987654,0,0,0.0987654320987654,0,0)" xlink:href="#X"/><use transform="matrix(0.0987654320987654,0,0,0.0987654320987654,19.753086419753078,0)" xlink:href="#Y"/><use transform="matrix(0.0987654320987654,0,0,0.0987654320987654,41.3827160493827,0)" xlink:href="#V"/><use transform="matrix(0.0987654320987654,0,0,0.0987654320987654,63.01234567901233,0)" xlink:href="#Z"/><use transform="matrix(0.0987654320987654,0,0,0.0987654320987654,74.76543209876542,0)" xlink:href="#aa"/><use transform="matrix(0.0987654320987654,0,0,0.0987654320987654,84.64197530864196,0)" xlink:href="#ab"/></g><path fill="#333" d="M238-95c0 69-44 99-111 99C63 4 22-25 22-93v-155h51v151c-1 38 19 59 55 60 90 1 49-130 58-211h52v153" id="ac"/><path fill="#333" d="M137-138c1-29-70-34-71-4 15 46 118 7 119 86 1 83-164 76-172 9l43-7c4 19 20 25 44 25 33 8 57-30 24-41C81-84 22-81 20-136c-2-80 154-74 161-7" id="ad"/><g id="j"><use transform="matrix(0.0987654320987654,0,0,0.0987654320987654,0,0)" xlink:href="#ac"/><use transform="matrix(0.0987654320987654,0,0,0.0987654320987654,25.58024691358024,0)" xlink:href="#ad"/><use transform="matrix(0.0987654320987654,0,0,0.0987654320987654,45.333333333333314,0)" xlink:href="#W"/><use transform="matrix(0.0987654320987654,0,0,0.0987654320987654,65.08641975308639,0)" xlink:href="#T"/></g><g id="k"><use transform="matrix(0.0987654320987654,0,0,0.0987654320987654,0,0)" xlink:href="#X"/><use transform="matrix(0.0987654320987654,0,0,0.0987654320987654,19.753086419753078,0)" xlink:href="#Y"/><use transform="matrix(0.0987654320987654,0,0,0.0987654320987654,41.3827160493827,0)" xlink:href="#V"/><use transform="matrix(0.0987654320987654,0,0,0.0987654320987654,63.01234567901233,0)" xlink:href="#ad"/><use transform="matrix(0.0987654320987654,0,0,0.0987654320987654,82.7654320987654,0)" xlink:href="#W"/><use transform="matrix(0.0987654320987654,0,0,0.0987654320987654,102.51851851851849,0)" xlink:href="#V"/><use transform="matrix(0.0987654320987654,0,0,0.0987654320987654,124.14814814814811,0)" xlink:href="#U"/></g><path fill="#fff" d="M195-6C206 82 75 100 31 46c-4-6-6-13-8-21l49-6c3 16 16 24 34 25 40 0 42-37 40-79-11 22-30 35-61 35-53 0-70-43-70-97 0-56 18-96 73-97 30 0 46 14 59 34l2-30h47zm-90-29c32 0 41-27 41-63 0-35-9-62-40-62-32 0-39 29-40 63 0 36 9 62 39 62" id="ae"/><g id="l"><use transform="matrix(0.0987654320987654,0,0,0.0987654320987654,0,0)" xlink:href="#M"/><use transform="matrix(0.0987654320987654,0,0,0.0987654320987654,25.58024691358024,0)" xlink:href="#H"/><use transform="matrix(0.0987654320987654,0,0,0.0987654320987654,47.20987654320986,0)" xlink:href="#K"/><use transform="matrix(0.0987654320987654,0,0,0.0987654320987654,66.96296296296293,0)" xlink:href="#y"/><use transform="matrix(0.0987654320987654,0,0,0.0987654320987654,86.71604938271601,0)" xlink:href="#D"/><use transform="matrix(0.0987654320987654,0,0,0.0987654320987654,100.54320987654316,0)" xlink:href="#x"/><use transform="matrix(0.0987654320987654,0,0,0.0987654320987654,112.29629629629626,0)" xlink:href="#L"/><use transform="matrix(0.0987654320987654,0,0,0.0987654320987654,122.17283950617279,0)" xlink:href="#F"/><use transform="matrix(0.0987654320987654,0,0,0.0987654320987654,141.92592592592587,0)" xlink:href="#L"/><use transform="matrix(0.0987654320987654,0,0,0.0987654320987654,151.8024691358024,0)" xlink:href="#O"/><use transform="matrix(0.0987654320987654,0,0,0.0987654320987654,173.43209876543202,0)" xlink:href="#ae"/></g><g id="m"><use transform="matrix(0.0987654320987654,0,0,0.0987654320987654,0,0)" xlink:href="#M"/><use transform="matrix(0.0987654320987654,0,0,0.0987654320987654,25.58024691358024,0)" xlink:href="#O"/><use transform="matrix(0.0987654320987654,0,0,0.0987654320987654,47.20987654320986,0)" xlink:href="#w"/><use transform="matrix(0.0987654320987654,0,0,0.0987654320987654,66.96296296296293,0)" xlink:href="#P"/><use transform="matrix(0.0987654320987654,0,0,0.0987654320987654,76.83950617283948,0)" xlink:href="#A"/><use transform="matrix(0.0987654320987654,0,0,0.0987654320987654,96.59259259259255,0)" xlink:href="#x"/><use transform="matrix(0.0987654320987654,0,0,0.0987654320987654,108.34567901234564,0)" xlink:href="#L"/><use transform="matrix(0.0987654320987654,0,0,0.0987654320987654,118.22222222222219,0)" xlink:href="#J"/><use transform="matrix(0.0987654320987654,0,0,0.0987654320987654,137.97530864197526,0)" xlink:href="#F"/></g><path fill="#fff" d="M24 0v-248h195v40H76v63h132v40H76v65h150V0H24" id="af"/><path fill="#fff" d="M220-157c-53 9-28 100-34 157h-49v-107c1-27-5-49-29-50C55-147 81-57 75 0H25l-1-190h47c2 12-1 28 3 38 10-53 101-56 108 0 13-22 24-43 59-42 82 1 51 116 57 194h-49v-107c-1-25-5-48-29-50" id="ag"/><g id="n"><use transform="matrix(0.0987654320987654,0,0,0.0987654320987654,0,0)" xlink:href="#af"/><use transform="matrix(0.0987654320987654,0,0,0.0987654320987654,23.703703703703695,0)" xlink:href="#ag"/><use transform="matrix(0.0987654320987654,0,0,0.0987654320987654,55.308641975308625,0)" xlink:href="#w"/><use transform="matrix(0.0987654320987654,0,0,0.0987654320987654,75.0617283950617,0)" xlink:href="#L"/><use transform="matrix(0.0987654320987654,0,0,0.0987654320987654,84.93827160493825,0)" xlink:href="#P"/><use transform="matrix(0.0987654320987654,0,0,0.0987654320987654,94.8148148148148,0)" xlink:href="#F"/></g><path fill="#333" d="M24 0v-248h195v40H76v63h132v40H76v65h150V0H24" id="ah"/><path fill="#333" d="M114-157C55-157 80-60 75 0H25v-261h50l-1 109c12-26 28-41 61-42 86-1 58 113 63 194h-50c-7-57 23-157-34-157" id="ai"/><path fill="#333" d="M85 4C-2 5 27-109 22-190h50c7 57-23 150 33 157 60-5 35-97 40-157h50l1 190h-47c-2-12 1-28-3-38-12 25-28 42-61 42" id="aj"/><path fill="#333" d="M220-157c-53 9-28 100-34 157h-49v-107c1-27-5-49-29-50C55-147 81-57 75 0H25l-1-190h47c2 12-1 28 3 38 10-53 101-56 108 0 13-22 24-43 59-42 82 1 51 116 57 194h-49v-107c-1-25-5-48-29-50" id="ak"/><g id="o"><use transform="matrix(0.0987654320987654,0,0,0.0987654320987654,0,0)" xlink:href="#ah"/><use transform="matrix(0.0987654320987654,0,0,0.0987654320987654,23.703703703703695,0)" xlink:href="#U"/><use transform="matrix(0.0987654320987654,0,0,0.0987654320987654,35.45679012345678,0)" xlink:href="#ai"/><use transform="matrix(0.0987654320987654,0,0,0.0987654320987654,57.0864197530864,0)" xlink:href="#W"/><use transform="matrix(0.0987654320987654,0,0,0.0987654320987654,76.83950617283948,0)" xlink:href="#T"/><use transform="matrix(0.0987654320987654,0,0,0.0987654320987654,90.66666666666663,0)" xlink:href="#W"/><use transform="matrix(0.0987654320987654,0,0,0.0987654320987654,110.41975308641969,0)" xlink:href="#aj"/><use transform="matrix(0.0987654320987654,0,0,0.0987654320987654,132.04938271604934,0)" xlink:href="#ak"/></g><path fill="#333" d="M135-194c52 0 70 43 70 98 0 56-19 99-73 100-30 1-46-15-58-35L72 0H24l1-261h50v104c11-23 29-37 60-37zM114-30c31 0 40-27 40-66 0-37-7-63-39-63s-41 28-41 65c0 36 8 64 40 64" id="al"/><path fill="#333" d="M25 0v-261h50V0H25" id="am"/><path fill="#333" d="M147 0L96-86 75-71V0H25v-261h50v150l67-79h53l-66 74L201 0h-54" id="an"/><g id="p"><use transform="matrix(0.0987654320987654,0,0,0.0987654320987654,0,0)" xlink:href="#al"/><use transform="matrix(0.0987654320987654,0,0,0.0987654320987654,21.629629629629623,0)" xlink:href="#am"/><use transform="matrix(0.0987654320987654,0,0,0.0987654320987654,31.506172839506164,0)" xlink:href="#Y"/><use transform="matrix(0.0987654320987654,0,0,0.0987654320987654,53.13580246913578,0)" xlink:href="#X"/><use transform="matrix(0.0987654320987654,0,0,0.0987654320987654,72.88888888888886,0)" xlink:href="#an"/><use transform="matrix(0.0987654320987654,0,0,0.0987654320987654,92.64197530864193,0)" xlink:href="#X"/><use transform="matrix(0.0987654320987654,0,0,0.0987654320987654,112.395061728395,0)" xlink:href="#ai"/><use transform="matrix(0.0987654320987654,0,0,0.0987654320987654,134.02469135802463,0)" xlink:href="#S"/><use transform="matrix(0.0987654320987654,0,0,0.0987654320987654,153.77777777777771,0)" xlink:href="#aa"/><use transform="matrix(0.0987654320987654,0,0,0.0987654320987654,163.65432098765424,0)" xlink:href="#V"/></g><path fill="#fff" d="M67-125c0 53 21 87 73 88 37 1 54-22 65-47l45 17C233-25 199 4 140 4 58 4 20-42 15-125 8-235 124-281 211-232c18 10 29 29 36 50l-46 12c-8-25-30-41-62-41-52 0-71 34-72 86" id="ao"/><g id="q"><use transform="matrix(0.0987654320987654,0,0,0.0987654320987654,0,0)" xlink:href="#ao"/><use transform="matrix(0.0987654320987654,0,0,0.0987654320987654,25.58024691358024,0)" xlink:href="#w"/><use transform="matrix(0.0987654320987654,0,0,0.0987654320987654,45.333333333333314,0)" xlink:href="#J"/><use transform="matrix(0.0987654320987654,0,0,0.0987654320987654,65.08641975308639,0)" xlink:href="#Q"/><use transform="matrix(0.0987654320987654,0,0,0.0987654320987654,86.71604938271601,0)" xlink:href="#y"/></g><path fill="#fff" d="M195 0l-88-114-31 24V0H24v-248h52v113l112-113h60L142-143 257 0h-62" id="ap"/><path fill="#fff" d="M121-226c-27-7-43 5-38 36h38v33H83V0H34v-157H6v-33h28c-9-59 32-81 87-68v32" id="aq"/><g id="r"><use transform="matrix(0.0987654320987654,0,0,0.0987654320987654,0,0)" xlink:href="#ap"/><use transform="matrix(0.0987654320987654,0,0,0.0987654320987654,25.58024691358024,0)" xlink:href="#w"/><use transform="matrix(0.0987654320987654,0,0,0.0987654320987654,45.333333333333314,0)" xlink:href="#aq"/><use transform="matrix(0.0987654320987654,0,0,0.0987654320987654,57.0864197530864,0)" xlink:href="#E"/><use transform="matrix(0.0987654320987654,0,0,0.0987654320987654,76.83950617283948,0)" xlink:href="#w"/></g><path fill="#fff" d="M84 4C32 4 15-41 15-95c0-55 18-99 73-99 29 0 47 12 58 34l2-30h48l-1 265h-49V-32C136-9 114 4 84 4zm21-34c32 0 41-29 41-66 0-36-9-64-40-64-33 0-39 30-40 65 0 43 13 65 39 65" id="ar"/><g id="s"><use transform="matrix(0.0987654320987654,0,0,0.0987654320987654,0,0)" xlink:href="#ar"/><use transform="matrix(0.0987654320987654,0,0,0.0987654320987654,21.629629629629623,0)" xlink:href="#I"/><use transform="matrix(0.0987654320987654,0,0,0.0987654320987654,43.259259259259245,0)" xlink:href="#y"/><use transform="matrix(0.0987654320987654,0,0,0.0987654320987654,63.01234567901233,0)" xlink:href="#I"/><use transform="matrix(0.0987654320987654,0,0,0.0987654320987654,84.64197530864195,0)" xlink:href="#y"/></g><path fill="#fff" d="M24-248c120-7 223 5 221 122C244-46 201 0 124 0H24v-248zM76-40c74 7 117-18 117-86 0-67-45-88-117-82v168" id="as"/><g id="t"><use transform="matrix(0.0987654320987654,0,0,0.0987654320987654,0,0)" xlink:href="#as"/><use transform="matrix(0.0987654320987654,0,0,0.0987654320987654,25.58024691358024,0)" xlink:href="#w"/><use transform="matrix(0.0987654320987654,0,0,0.0987654320987654,45.333333333333314,0)" xlink:href="#x"/><use transform="matrix(0.0987654320987654,0,0,0.0987654320987654,57.0864197530864,0)" xlink:href="#w"/></g><g id="u"><use transform="matrix(0.0987654320987654,0,0,0.0987654320987654,0,0)" xlink:href="#F"/><use transform="matrix(0.0987654320987654,0,0,0.0987654320987654,19.753086419753078,0)" xlink:href="#x"/><use transform="matrix(0.0987654320987654,0,0,0.0987654320987654,31.506172839506164,0)" xlink:href="#C"/><use transform="matrix(0.0987654320987654,0,0,0.0987654320987654,53.13580246913578,0)" xlink:href="#D"/><use transform="matrix(0.0987654320987654,0,0,0.0987654320987654,66.96296296296293,0)" xlink:href="#w"/><use transform="matrix(0.0987654320987654,0,0,0.0987654320987654,86.71604938271601,0)" xlink:href="#ae"/><use transform="matrix(0.0987654320987654,0,0,0.0987654320987654,108.34567901234561,0)" xlink:href="#y"/></g></defs></g></svg>