<svg xmlns="http://www.w3.org/2000/svg" xmlns:xlink="http://www.w3.org/1999/xlink" xmlns:lucid="lucid" width="2536.38" height="1770.1"><g transform="translate(-80 500)" lucid:page-tab-id="0_0"><path d="M2000 600c0 359.04-291 650.1-650 650.1S700 959.04 700 600 991-50.1 1350-50.1s650 291.06 650 650.1z" fill-opacity="0"/><path d="M1998.92 635.72l-1.23 19.43-1.17 11.1m-2.32 20.3l-3.33 22.68-1.45 7.57m-3.87 20.05l-5.94 25.34-1.23 4.43m-5.5 19.67l-.53 1.92-8.35 25.7-.57 1.5m-7.12 19.16l-1.73 4.67-9.94 23.64m-8.64 18.5l-3.46 7.32-10.44 19.98m-10.05 17.78l-5.7 9.86-10.3 16.25m-11.38 16.94l-8.5 12.22-9.52 12.55m-12.64 16.05l-11.8 14.27-8.1 9m-13.82 15.03l-15.57 15.9-6.1 5.74m-14.93 13.93L1764 1101.2l-3.65 2.9m-16 12.68l-1.77 1.4-22.1 16.06-.88.58m-17.02 11.3l-4.8 3.2-21.27 12.88m-17.84 9.92l-8 4.4-19.26 9.56m-18.56 8.52l-11.2 4.98-17.08 6.77m-19.17 7.06l-14.4 5.02-14.74 4.45m-19.65 5.55l-17.63 4.52-12.15 2.6m-20.02 4l-21.06 3.56-9.2 1.16m-20.28 2.46l-24.84 2.08-5.7.24m-20.4.85l-1.45.05-13.87.15-15.3-.32m-20.42-.76l-19.4-1.23-11.13-1.18m-20.3-2.3l-22.63-3.35-7.62-1.45m-20.05-3.88l-25.27-5.92-4.5-1.26m-19.67-5.5l-1.84-.5-25.68-8.35-1.6-.6m-19.15-7.1l-4.58-1.7-23.74-10m-18.5-8.64l-7.2-3.4-20.1-10.5m-17.76-10.04l-9.75-5.63-16.37-10.4m-16.96-11.38l-12.1-8.4-12.66-9.62m-16.02-12.64l-14.16-11.72-9.1-8.2m-15.04-13.83l-15.8-15.45-5.83-6.22m-13.93-14.93l-16.87-19.55-3-3.77m-12.68-16l-1.3-1.67-16.07-22.1-.67-1m-11.3-17l-3.12-4.7-12.94-21.38m-9.92-17.85l-4.33-7.88-9.6-19.4m-8.53-18.55l-4.93-11.1-6.8-17.2m-7.06-19.15l-5-14.3-4.46-14.83m-5.55-19.66l-4.5-17.56-2.6-12.22m-4-20.02l-3.56-21-1.16-9.26m-2.46-20.28l-2.08-24.82-.24-5.72m-.85-20.4l-.05-1.45L700 600l.32-15.3m.76-20.42l1.23-19.43 1.17-11.1m2.32-20.3l3.33-22.68 1.45-7.57m3.87-20.05l5.94-25.34 1.23-4.43m5.5-19.67l.53-1.92 8.35-25.7.57-1.5m7.12-19.16l1.73-4.67 9.94-23.64m8.64-18.5l3.46-7.32 10.44-19.98m10.05-17.78l5.7-9.86 10.3-16.25m11.38-16.94l8.5-12.22 9.52-12.55M846 189.64l11.8-14.27 8.1-9m13.82-15.03l15.57-15.9 6.1-5.74m14.93-13.93L936 98.8l3.65-2.9m16-12.68l1.77-1.4 22.1-16.06.88-.58m17.02-11.3l4.8-3.2 21.27-12.88m17.84-9.92l8-4.4 19.26-9.56m18.56-8.52l11.2-4.98 17.08-6.77m19.17-7.06l14.4-5.02 14.74-4.45m19.65-5.55l17.63-4.52 12.15-2.6m20.02-4l21.06-3.56 9.2-1.16m20.28-2.46l24.84-2.08 5.7-.24m20.4-.85l1.45-.05 13.87-.15 15.3.32m20.42.76l19.4 1.23 11.13 1.18m20.3 2.3l22.63 3.35 7.62 1.45m20.05 3.88l25.27 5.92 4.5 1.26m19.67 5.5l1.84.5 25.68 8.35 1.6.6m19.15 7.1l4.58 1.7 23.74 10m18.5 8.64l7.2 3.4 20.1 10.5m17.76 10.04l9.75 5.63 16.37 10.4m16.96 11.38l12.1 8.4 12.66 9.62m16.02 12.64l14.16 11.72 9.1 8.2m15.04 13.83l15.8 15.45 5.83 6.22m13.93 14.93l16.87 19.55 3 3.77m12.68 16l1.3 1.67 16.07 22.1.67 1m11.3 17l3.12 4.7 12.94 21.38m9.92 17.85l4.33 7.88 9.6 19.4m8.53 18.55l4.93 11.1 6.8 17.2m7.06 19.15l5 14.3 4.46 14.83m5.55 19.66l4.5 17.56 2.6 12.22m4 20.02l3.56 21 1.16 9.26m2.46 20.28l2.08 24.82.24 5.72m.85 20.4l.05 1.45.15 13.87-.32 15.3" stroke="#fcc438" stroke-width="10" fill="none"/><path d="M800 505.8c0-3.3 2.7-6 6-6h288c3.3 0 6 2.7 6 6v188c0 3.32-2.7 6-6 6H806c-3.3 0-6-2.68-6-6z" fill="#3aa6dd"/><use xlink:href="#a" transform="matrix(1,0,0,1,812,511.80156396503776) translate(83.22222222222223 92.83333333333333)"/><path d="M345 600h419.55" stroke="#de5f85" stroke-width="10" fill="none"/><path d="M345.13 605h-5.3l.17-5-.18-5h5.3z" fill="#de5f85"/><path d="M783.82 600l-14.27 4.63v-9.27z" stroke="#de5f85" stroke-width="10" fill="#de5f85"/><path d="M1469.12 519.8c16.57 0 30 35.82 30 80s-13.43 80-30 80h-240c-16.57 0-30-35.82-30-80s13.43-80 30-80z" stroke="#0c7cba" stroke-width="3" fill="#3aa6dd"/><path d="M1469.12 679.8c-16.57 0-30-35.82-30-80s13.43-80 30-80" stroke="#0c7cba" stroke-width="3" fill="none"/><path d="M1105 599.8h57.18" stroke="#3aa6dd" stroke-width="10" fill="none"/><path d="M1105.13 604.8H1100v-10h5.13z" fill="#3aa6dd"/><path d="M1181.44 599.8l-14.26 4.64v-9.27z" stroke="#3aa6dd" stroke-width="10" fill="#3aa6dd"/><path d="M1600 505.8c0-3.3 2.7-6 6-6h288c3.3 0 6 2.7 6 6v188c0 3.32-2.7 6-6 6h-288c-3.3 0-6-2.68-6-6z" fill="#3aa6dd"/><use xlink:href="#b" transform="matrix(1,0,0,1,1612,511.80156396503776) translate(85.00000000000001 92.83333333333333)"/><path d="M1595 599.8h-58.93" stroke="#3aa6dd" stroke-width="10" fill="none"/><path d="M1600 604.8h-5.13v-10h5.13z" fill="#3aa6dd"/><path d="M1516.8 599.8l14.27-4.63v9.27z" stroke="#3aa6dd" stroke-width="10" fill="#3aa6dd"/><path d="M345 330h219c3.3 0 6 2.7 6 6v257.8c0 3.32 2.7 6 6 6h188.55" stroke="#de5f85" stroke-width="10" fill="none"/><path d="M345.13 335h-5.3l.17-5-.18-5h5.3z" fill="#de5f85"/><path d="M783.82 599.8l-14.27 4.64v-9.27z" stroke="#de5f85" stroke-width="10" fill="#de5f85"/><path d="M1440 459.82c0 11.04-40.3 19.98-90 19.98s-90-8.94-90-19.98V299.98c0-11.03 40.3-19.98 90-19.98s90 8.95 90 19.98z" stroke="#0c7cba" stroke-width="3" fill="#3aa6dd"/><path d="M1440 299.98c0 11.03-40.3 19.98-90 19.98s-90-8.95-90-19.98" stroke="#0c7cba" stroke-width="3" fill="none"/><path d="M1191.6-265.8c-34.8 0-63-25.6-63-57.2 0-25.27 17.05-46.58 43.53-54.4-1.53-74.3 103.47-88.6 145.47-60 21-42.9 126-28.6 126 14.3 63-14.3 126 42.9 84 114.4 42 57.2 0 128.7-84 100.1-21 37.18-105 37.18-126 0-42 28.6-126 14.3-126-57.2z" stroke="#5e5e5e" stroke-width="3" fill="#c1e4f7"/><path d="M292 260c26.5 0 48 31.34 48 70s-21.5 70-48 70H148c-26.5 0-48-31.34-48-70s21.5-70 48-70z" fill="#de5f85"/><use xlink:href="#c" transform="matrix(1,0,0,1,105,265) translate(49.87654320987656 70.59027777777777)"/><use xlink:href="#d" transform="matrix(1,0,0,1,105,265) translate(132.53086419753086 70.59027777777777)"/><path d="M292 800c26.5 0 48 31.34 48 70s-21.5 70-48 70H148c-26.5 0-48-31.34-48-70s21.5-70 48-70z" fill="#de5f85"/><use xlink:href="#e" transform="matrix(1,0,0,1,105,805) translate(63.20987654320987 70.59027777777777)"/><use xlink:href="#f" transform="matrix(1,0,0,1,105,805) translate(108.88888888888889 70.59027777777777)"/><path d="M345 870h219c3.3 0 6-2.7 6-6V605.8c0-3.3 2.7-6 6-6h188.55" stroke="#de5f85" stroke-width="10" fill="none"/><path d="M345.13 875h-5.3l.17-5-.18-5h5.3z" fill="#de5f85"/><path d="M783.82 599.8l-14.27 4.64v-9.27z" stroke="#de5f85" stroke-width="10" fill="#de5f85"/><path d="M292 530c26.5 0 48 31.34 48 70s-21.5 70-48 70H148c-26.5 0-48-31.34-48-70s21.5-70 48-70z" fill="#de5f85"/><use xlink:href="#g" transform="matrix(1,0,0,1,105,535) translate(68.11728395061729 70.59027777777777)"/><path d="M1133.72-474.2c.85-3.2 4.23-5.8 7.54-5.8h161.34c3.3 0 5.3 2.6 4.45 5.8l-23.58 88.4c-.85 3.2-4.23 5.8-7.54 5.8H1114.6c-3.32 0-5.3-2.6-4.46-5.8z" stroke="#5e5e5e" stroke-width="3" fill="#b2d6ef"/><use xlink:href="#h" transform="matrix(1,0,0,1,1113.5955751240208,-475) translate(25.961790123456787 48.71527777777778)"/><use xlink:href="#i" transform="matrix(1,0,0,1,1113.5955751240208,-475) translate(104.85067901234568 48.71527777777778)"/><path d="M1433.72-474.2c.85-3.2 4.23-5.8 7.54-5.8h161.34c3.3 0 5.3 2.6 4.45 5.8l-23.58 88.4c-.85 3.2-4.23 5.8-7.54 5.8H1414.6c-3.32 0-5.3-2.6-4.46-5.8z" stroke="#5e5e5e" stroke-width="3" fill="#b2d6ef"/><use xlink:href="#j" transform="matrix(1,0,0,1,1413.5955751240208,-475) translate(29.63462962962962 48.71527777777778)"/><use xlink:href="#k" transform="matrix(1,0,0,1,1413.5955751240208,-475) translate(82.59759259259259 48.71527777777778)"/><path d="M950 494.8V385.9c0-3.3 2.7-6 6-6h267.05" stroke="#3aa6dd" stroke-width="10" fill="none"/><path d="M955 499.8h-10v-5.13h10z" fill="#3aa6dd"/><path d="M1242.32 379.9l-14.27 4.64v-9.27z" stroke="#3aa6dd" stroke-width="10" fill="#3aa6dd"/><path d="M1750 494.8V385.9c0-3.3-2.7-6-6-6h-267.05" stroke="#3aa6dd" stroke-width="10" fill="none"/><path d="M1755 499.8h-10v-5.13h10z" fill="#3aa6dd"/><path d="M1457.68 379.9l14.27-4.63v9.27z" stroke="#3aa6dd" stroke-width="10" fill="#3aa6dd"/><path d="M2549.1 140c26.1 0 47.28 31.34 47.28 70s-21.17 70-47.28 70h-141.82c-26.1 0-47.28-31.34-47.28-70s21.17-70 47.28-70z" fill="#834187"/><use xlink:href="#l" transform="matrix(1,0,0,1,2365,145) translate(58.654320987654316 70.59027777777777)"/><path d="M2549.1 400c26.1 0 47.28 31.34 47.28 70s-21.17 70-47.28 70h-141.82c-26.1 0-47.28-31.34-47.28-70s21.17-70 47.28-70z" fill="#834187"/><use xlink:href="#m" transform="matrix(1,0,0,1,2365,405) translate(69.11728395061729 70.59027777777777)"/><path d="M2549.1 660c26.1 0 47.28 31.34 47.28 70s-21.17 70-47.28 70h-141.82c-26.1 0-47.28-31.34-47.28-70s21.17-70 47.28-70z" fill="#834187"/><use xlink:href="#n" transform="matrix(1,0,0,1,2365,665) translate(80.25925925925927 70.59027777777777)"/><path d="M1905 599.8h219c3.3 0 6-2.68 6-6V216c0-3.3 2.7-6 6-6h188.55" stroke="#834187" stroke-width="10" fill="none"/><path d="M1905.13 604.8H1900v-10h5.13z" fill="#834187"/><path d="M2343.82 210l-14.27 4.64v-9.28z" stroke="#834187" stroke-width="10" fill="#834187"/><path d="M2010 600h114c3.3 0 6-2.7 6-6V476c0-3.3 2.7-6 6-6h188.55" stroke="#834187" stroke-width="10" fill="none"/><path d="M2010.13 605h-5.23l.1-4.97-.05-5.03h5.18z" fill="#834187"/><path d="M2343.82 470l-14.27 4.64v-9.28z" stroke="#834187" stroke-width="10" fill="#834187"/><path d="M1905 599.8h219c3.3 0 6 2.7 6 6V724c0 3.3 2.7 6 6 6h188.55" stroke="#834187" stroke-width="10" fill="none"/><path d="M1905.13 604.8H1900v-10h5.13z" fill="#834187"/><path d="M2343.82 730l-14.27 4.64v-9.28z" stroke="#834187" stroke-width="10" fill="#834187"/><path d="M1348.86-420l-.88 3.02v86.7l.88.9 40.27-23.86-40.27-66.76z" stroke="#000" stroke-opacity="0" fill="#343434"/><path d="M1348.86-420l-40.26 66.76 40.26 23.87V-420z" stroke="#000" stroke-opacity="0" fill="#8c8c8c"/><path d="M1348.86-321.77l-.48.53v30.95l.48 1.45 40.27-56.8-40.27 23.88z" stroke="#000" stroke-opacity="0" fill="#3c3c3b"/><path d="M1348.86-288.85v-32.92l-40.26-23.87 40.26 56.8z" stroke="#000" stroke-opacity="0" fill="#8c8c8c"/><path d="M1348.86-329.37l40.27-23.87-40.27-18.23v42.1z" stroke="#000" stroke-opacity="0" fill="#141414"/><path d="M1308.6-353.24l40.26 23.87v-42.1l-40.26 18.23z" stroke="#000" stroke-opacity="0" fill="#393939"/><path d="M1350 273.5v-421.7" stroke="#3aa6dd" stroke-width="10" fill="none"/><path d="M1355 278.64l-5-.14-5 .04v-5.17h10z" fill="#3aa6dd"/><path d="M1350-167.48l4.64 14.27h-9.28z" stroke="#3aa6dd" stroke-width="10" fill="#3aa6dd"/><path d="M1200-282.85c0-3.3 2.7-6 6-6h288c3.3 0 6 2.7 6 6v62c0 3.3-2.7 6-6 6h-288c-3.3 0-6-2.7-6-6z" stroke="#000" stroke-opacity="0" stroke-width="3" fill="#fff" fill-opacity="0"/><use xlink:href="#o" transform="matrix(1,0,0,1,1205,-283.8490010878854) translate(8.96296296296299 37.33333333333333)"/><use xlink:href="#p" transform="matrix(1,0,0,1,1205,-283.8490010878854) translate(139.11111111111114 37.33333333333333)"/><path d="M1000.86 681.82l-4.33-2.7c0-.4-.1-.8-.1-1.22l3.7-3.5c.42-.42.52-.94.42-1.35-.1-.52-.4-.93-.93-1.14l-4.74-1.74c-.1-.4-.2-.83-.42-1.24l3-4.13c.3-.42.4-1.04.2-1.45-.2-.52-.62-.83-1.13-.93l-5.06-.83c-.2-.42-.4-.73-.62-1.14l2.17-4.64c.2-.42.1-1.03-.1-1.45-.3-.4-.83-.62-1.34-.62l-5.06.2c-.3-.4-.62-.7-.83-1.02l1.13-4.95c.1-.52 0-1.04-.4-1.35-.32-.4-.84-.5-1.35-.4l-4.96 1.13c-.3-.3-.72-.52-1.03-.83l.2-5.05c0-.52-.2-1.04-.62-1.35-.52-.2-1.03-.3-1.55-.1l-4.54 2.17c-.42-.2-.83-.4-1.14-.62l-.83-5.06c-.1-.5-.4-.92-.93-1.13-.5-.22-1.03-.1-1.44.2l-4.13 3c-.4-.22-.82-.32-1.23-.43l-1.76-4.74c-.2-.52-.62-.83-1.13-.93-.4-.1-1.02 0-1.33.4l-3.5 3.73c-.42 0-.84-.1-1.25-.1l-2.68-4.34c-.2-.42-.72-.73-1.24-.73s-1.03.3-1.24.72l-2.68 4.32c-.4 0-.93.1-1.34.1l-3.4-3.7c-.42-.42-.93-.52-1.45-.42-.53.1-.94.4-1.04.93l-1.86 4.74c-.4.1-.72.2-1.13.42l-4.13-3c-.4-.3-1.03-.42-1.44-.2-.52.2-.83.6-.93 1.12l-.83 5.06c-.4.2-.72.4-1.13.62l-4.64-2.17c-.4-.2-.92-.1-1.44.1-.4.3-.62.83-.62 1.35l.2 5.05c-.4.3-.7.52-1.02.83l-4.96-1.14c-.5-.1-1.03 0-1.44.4-.3.32-.52.84-.3 1.36l1.13 4.95c-.3.3-.5.62-.82 1.03l-5.06-.2c-.5 0-1.03.2-1.34.6-.3.43-.3 1.04-.1 1.46l2.17 4.64c-.2.4-.42.72-.62 1.13l-5.06.82c-.5.1-.93.4-1.13.93-.2.4-.1 1.03.2 1.44l2.9 4.12c-.1.4-.2.83-.32 1.24l-4.74 1.75c-.52.22-.83.63-.93 1.15-.1.4 0 .93.4 1.34l3.73 3.5c0 .4-.1.82-.1 1.23l-4.34 2.7c-.4.2-.72.7-.72 1.22s.3 1.04.72 1.24l4.33 2.68c0 .4.1.82.1 1.34l-3.7 3.4c-.42.4-.52.93-.42 1.45.1.4.4.92.93 1.03l4.74 1.75.3 1.24-2.88 4.12c-.3.4-.4 1.03-.2 1.44.2.52.62.83 1.13.93l5.06.8c.2.43.4.74.62 1.15l-2.17 4.64c-.2.4-.1 1.02.1 1.44.3.4.83.62 1.34.62l5.06-.2c.3.4.52.7.83 1.02l-1.13 4.95c-.1.52 0 1.04.4 1.35.32.4.84.5 1.35.4l4.96-1.13c.3.3.6.52 1.03.83l-.2 5.05c0 .52.2 1.04.62 1.35.4.2 1.03.3 1.44.1l4.65-2.17c.42.22.73.42 1.14.63l.83 5.06c.1.5.4.9.93 1.12.4.2 1.03.1 1.44-.2l4.13-2.9c.4.1.82.2 1.23.32l1.76 4.74c.2.52.62.83 1.03.93.5.1 1.02 0 1.43-.4l3.5-3.72c.42 0 .84.1 1.25.1l2.68 4.34c.2.4.72.72 1.24.72s1.03-.3 1.24-.72l2.68-4.33c.4 0 .83-.12 1.34-.12l3.4 3.72c.42.4.93.5 1.45.4.42-.1.94-.4 1.04-.92l1.76-4.74 1.23-.3 4.13 2.87c.4.32 1.03.43 1.44.22.52-.2.83-.62.93-1.13l.83-5.07c.4-.2.72-.4 1.13-.62l4.64 2.18c.4.2 1.03.1 1.44-.1.4-.3.62-.83.62-1.35l-.2-5.05c.4-.3.7-.52 1.02-.83l4.96 1.14c.5.1 1.03 0 1.44-.42.3-.3.52-.83.3-1.35l-1.13-4.95c.3-.3.5-.62.82-1.03l5.06.2c.5 0 1.03-.2 1.34-.6.3-.43.3-1.04.1-1.46l-2.17-4.65c.2-.4.42-.72.62-1.14l5.06-.8c.5-.1.93-.42 1.13-.94.2-.4.1-1.03-.2-1.44l-2.9-4.13c.1-.42.2-.84.32-1.25l4.74-1.75c.52-.1.83-.62.93-1.03.1-.52 0-1.04-.4-1.45l-3.73-3.4c0-.52.1-.93.1-1.34l4.34-2.7c.4-.2.72-.7.72-1.23 0-.5-.3-1.03-.72-1.23zm-29 36c-1.64-.4-2.67-2.06-2.36-3.7.4-1.66 1.96-2.7 3.6-2.38 1.66.4 2.8 2.06 2.38 3.7-.3 1.66-1.96 2.7-3.6 2.38zm-1.43-10c-1.55-.3-3 .62-3.3 2.16l-1.55 7.12c-4.75 2.17-10.1 3.4-15.58 3.4-5.67 0-11.04-1.23-15.9-3.5l-1.53-7.22c-.3-1.45-1.86-2.48-3.3-2.07l-6.4 1.35c-1.14-1.23-2.27-2.47-3.2-3.92h30.85c.3 0 .5 0 .5-.3v-10.94c0-.32-.2-.42-.5-.42h-9.08v-6.92h9.8c.82 0 4.74.2 5.98 5.16.4 1.55 1.24 6.5 1.86 8.05.5 1.86 2.9 5.36 5.36 5.36h15.48c.1 0 .3 0 .5-.1-1.02 1.55-2.26 2.9-3.5 4.13l-6.5-1.34zm-42.7 9.8c-1.66.4-3.3-.72-3.62-2.37-.4-1.66.62-3.3 2.28-3.62 1.75-.4 3.3.73 3.7 2.38.32 1.66-.7 3.3-2.36 3.62zm-11.77-47.46c.72 1.55 0 3.4-1.55 4.13-1.54.6-3.3 0-4.02-1.56-.72-1.55 0-3.4 1.55-4.13 1.55-.6 3.3.1 4.03 1.56zm-3.62 8.56l6.6-2.9c1.45-.6 2.07-2.26 1.45-3.7l-1.35-3.1h5.37v24.04H913.7c-1.05-3.3-1.46-6.7-1.46-10.3 0-1.36 0-2.8.2-4.04zm29-2.37v-7.02h12.8c.6 0 4.63.73 4.63 3.72 0 2.47-3.1 3.3-5.57 3.3h-11.87zm46.2 6.4c0 .92 0 1.85-.1 2.78h-3.8c-.42 0-.52.3-.52.72V688c0 4.13-2.38 5.06-4.44 5.27-1.96.3-4.23-.83-4.44-1.96-1.13-6.6-3.1-7.94-6.2-10.4 3.83-2.38 7.75-5.9 7.75-10.74 0-5.16-3.52-8.36-5.9-9.9-3.4-2.28-7.1-2.7-8.14-2.7h-40.03c5.47-6.08 12.9-10.3 21.15-11.96l4.75 4.96c1.03 1.13 2.78 1.23 3.92.1l5.26-5.06c11.05 2.07 20.44 8.98 25.9 18.47l-3.6 8.15c-.73 1.45 0 3.1 1.33 3.72l7.02 3.1c.1 1.23.2 2.47.2 3.7zm-40.02-41.27c1.24-1.14 3.2-1.14 4.34.1 1.23 1.24 1.13 3.2-.1 4.33-1.14 1.15-3.1 1.15-4.34-.1-1.13-1.23-1.03-3.2.1-4.32zm35.9 28.88c.73-1.54 2.48-2.27 4.03-1.54 1.55.62 2.27 2.47 1.65 4.02-.72 1.55-2.58 2.27-4.13 1.55-1.54-.63-2.16-2.5-1.54-4.04z" stroke="#000" stroke-opacity="0" stroke-width="1.36"/><path d="M1386.66 605.94c-4.4 0-8.4 1.93-11.06 5l-7-4.9c.77-2.03 1.2-4.2 1.2-6.47 0-2.27-.43-4.43-1.13-6.47l6.93-4.9c2.73 3.08 6.65 5.12 11.06 5.12 8.2 0 14.84-6.7 14.84-14.9 0-8.17-6.65-14.76-14.84-14.76-8.12 0-14.77 6.6-14.77 14.77 0 1.48.2 2.96.62 4.2l-7 4.9c-2.87-3.53-7.07-6.14-11.83-6.82v-8.4c6.7-1.37 11.75-7.4 11.75-14.55 0-8.18-6.65-14.78-14.84-14.78-8.1 0-14.76 6.6-14.76 14.78 0 7.05 4.9 12.96 11.48 14.43v8.53c-8.96 1.6-15.82 9.44-15.82 18.87 0 9.44 6.93 17.28 15.96 18.87v8.87c-6.65 1.48-11.62 7.4-11.62 14.55 0 8.2 6.65 14.78 14.77 14.78 8.2 0 14.85-6.6 14.85-14.78 0-7.16-4.97-13.07-11.62-14.54v-8.86c4.76-.9 8.6-3.07 11.62-6.82l7 5c-.35 1.25-.56 2.62-.56 4.1 0 8.18 6.64 14.88 14.76 14.88 8.2 0 14.84-6.7 14.84-14.9 0-8.17-6.65-14.76-14.84-14.76zm0-34.67c4 0 7.2 3.2 7.2 7.16 0 3.98-3.2 7.16-7.2 7.16-3.92 0-7.14-3.2-7.14-7.17 0-3.97 3.22-7.16 7.14-7.16zm-43.2-13.52c0-3.86 3.23-7.16 7.15-7.16 4 0 7.22 3.3 7.22 7.15 0 3.98-3.22 7.27-7.2 7.27-3.93 0-7.15-3.3-7.15-7.27zm14.36 84.1c0 3.87-3.22 7.16-7.2 7.16-3.93 0-7.15-3.28-7.15-7.15 0-3.97 3.22-7.27 7.14-7.27 4 0 7.22 3.3 7.22 7.27zm-7.2-32.27c-5.54 0-10.02-4.55-10.02-10 0-5.57 4.48-10 10-10 5.54 0 10.1 4.43 10.1 10 0 5.45-4.56 10-10.1 10zm36.04 18.3c-3.92 0-7.14-3.2-7.14-7.17 0-3.96 3.22-7.15 7.14-7.15 4 0 7.2 3.2 7.2 7.16 0 4-3.2 7.17-7.2 7.17z" stroke="#000" stroke-opacity="0" stroke-width=".6" fill="#231f20"/><path d="M1230 461h237.35v-41.2H1230V461z" stroke="#000" stroke-opacity="0" fill="#c4373a"/><path d="M1256.35 436.9l-8.8 4 8.8 4v-8zm-11.16 4.86l-2.15-.86 2.14-1 17.8-7.94v2.1l-4.76 2.06v9.56l4.75 2.06v2l-17.8-7.98zM1272.96 432.16h12.82v1.8h-10.68v5.95h9.5v1.86h-9.5v6.1h10.68v1.8h-12.82v-17.5zM1303.34 441.1c.7 0 1.2-.08 1.9-.25.47-.16.95-.4 1.42-.74.24-.28.72-.65.95-1.1.25-.45.25-.95.25-1.52v-.04c0-1.08-.24-1.94-1.2-2.56-.7-.58-1.9-.9-3.3-.9h-5.47v7.12h5.46zm-7.36-8.94h7.6c.95 0 1.9.17 2.85.45.95.34 1.66.76 2.13 1.3.48.45.7.94.95 1.52.25.6.5 1.23.5 1.93v.04c0 .74-.25 1.35-.5 1.97-.23.58-.46 1.07-.94 1.48-.47.42-.95.8-1.66 1.08-.47.24-1.2.45-1.9.57l5.46 7.17h-2.37l-5.23-6.8h-5v6.8h-1.9v-17.5zM1328.5 448.15c.95 0 1.9-.17 2.6-.58.96-.37 1.67-.86 2.38-1.52.48-.66.95-1.4 1.43-2.27.25-.87.48-1.8.48-2.8v-.04c0-1.03-.23-1.98-.47-2.85-.47-.87-.94-1.65-1.65-2.27-.48-.66-1.2-1.2-2.14-1.57-.7-.37-1.65-.57-2.84-.57-.95 0-1.9.15-2.6.56-.96.37-1.67.87-2.15 1.53-.7.65-1.17 1.4-1.4 2.25-.48.87-.72 1.82-.72 2.8v.1c0 .98.24 1.92.7 2.8.25.85.72 1.64 1.43 2.25.5.66 1.2 1.2 2.15 1.57.95.37 1.66.58 2.85.58m-.24 1.8c-1.18 0-2.37-.2-3.56-.7-1.2-.48-2.13-1.14-2.85-1.97-.7-.82-1.42-1.77-1.9-2.88-.23-1.07-.47-2.23-.47-3.42v-.04c0-1.24.24-2.4.47-3.46.48-1.12 1.2-2.06 1.9-2.93.95-.82 1.9-1.48 2.85-1.98 1.2-.45 2.38-.7 3.8-.7 1.2 0 2.37.2 3.56.7 1.2.5 2.14 1.16 2.85 1.98.72.83 1.43 1.77 1.9 2.9.48 1.06.48 2.2.48 3.4.24.05.24.05 0 .1 0 1.18 0 2.34-.47 3.4-.47 1.12-1.18 2.07-1.9 2.9-.7.86-1.65 1.52-2.84 2-1.2.46-2.37.7-3.8.7M1353.66 449.92c-1.43 0-2.85-.2-4.04-.7-1.18-.45-2.13-1.16-3.32-2.1l1.42-1.44c.72.82 1.67 1.44 2.62 1.85.94.4 2.13.62 3.32.62 1.18 0 2.13-.3 2.85-.83.72-.57 1.2-1.27 1.2-2.14v-.04c0-.4-.24-.78-.24-1.1-.24-.34-.48-.63-.72-.88-.47-.3-.95-.53-1.42-.74-.7-.2-1.42-.4-2.37-.62-.95-.2-1.9-.5-2.6-.74-.73-.3-1.44-.66-1.9-1.03-.5-.4-.73-.86-.96-1.4-.25-.54-.5-1.2-.5-1.9v-.04c0-.7.25-1.32.5-1.9.22-.62.7-1.1 1.17-1.53.48-.4 1.2-.78 1.9-.98.7-.26 1.43-.4 2.38-.4 1.18 0 2.37.18 3.32.55.95.37 1.9.9 2.85 1.6l-1.2 1.53c-.94-.66-1.65-1.15-2.6-1.44-.7-.3-1.66-.45-2.6-.45-1.2 0-1.9.27-2.62.8-.7.55-.95 1.2-.95 2.03V437.67c.24.34.47.63.95.92.24.24.7.48 1.42.73.48.2 1.43.45 2.38.62 1.9.45 3.32 1.03 4.27 1.8.95.8 1.42 1.82 1.42 3.18v.04c0 .75-.25 1.45-.48 2.02-.24.6-.7 1.15-1.2 1.56-.46.45-1.18.78-1.9 1.03-.7.2-1.65.32-2.36.32M1375.97 441.68c.7 0 1.42-.08 2.13-.3.48-.15.95-.44 1.43-.77.47-.32.7-.73.95-1.23.24-.45.47-1 .47-1.56v-.04c0-1.23-.47-2.18-1.42-2.8-.7-.66-1.9-1-3.32-1h-4.5v7.72h4.27zm-6.4-9.52h6.64c.96 0 1.9.13 2.85.37.72.3 1.43.62 1.9 1.1.72.5 1.2 1.1 1.43 1.75.23.7.47 1.48.47 2.34v.04c0 .95-.24 1.78-.47 2.48-.48.74-.95 1.32-1.66 1.8-.48.5-1.2.83-2.14 1.08-.7.25-1.66.37-2.6.37h-4.28v6.17h-2.14v-17.5zM1392.82 432.16h1.9v17.5h-1.9v-17.5zM1405.87 432.16h2.14v10.47l9.98-10.47h2.6l-7.58 7.66 7.83 9.85h-2.38l-6.88-8.5-3.56 3.8v4.7h-2.13v-17.5zM1430.08 432.16h12.82v1.8h-10.92v5.95h20.18v1.86h-20.18v6.1h10.92v1.8h-12.82v-17.5z" stroke="#000" stroke-opacity="0" fill="#fff"/><path d="M1230 346c0-3.3 2.7-6 6-6h228c3.3 0 6 2.7 6 6v48c0 3.3-2.7 6-6 6h-228c-3.3 0-6-2.7-6-6z" stroke="#000" stroke-opacity="0" stroke-width="3" fill="#fff" fill-opacity="0"/><use xlink:href="#q" transform="matrix(1,0,0,1,1235,345) translate(81.72839506172839 30.27777777777778)"/><path d="M1200 574.13c0-3.3 2.7-6 6-6h149.75c3.32 0 6 2.7 6 6v51.34c0 3.3-2.68 6-6 6H1206c-3.3 0-6-2.7-6-6z" stroke="#000" stroke-opacity="0" stroke-width="3" fill="#fff" fill-opacity="0"/><use xlink:href="#r" transform="matrix(1,0,0,1,1205,573.1348972983711) translate(45.81481481481482 17.77777777777778)"/><use xlink:href="#s" transform="matrix(1,0,0,1,1205,573.1348972983711) translate(43.376543209876544 44.44444444444444)"/><path d="M1802.44 681.82l-4.33-2.7c0-.4-.1-.8-.1-1.22l3.72-3.5c.4-.42.52-.94.4-1.35-.1-.52-.4-.93-.92-1.14l-4.74-1.74c-.1-.4-.2-.83-.4-1.24l2.98-4.13c.3-.42.4-1.04.2-1.45-.2-.52-.6-.83-1.13-.93l-5.05-.83c-.2-.42-.4-.73-.6-1.14l2.15-4.64c.2-.42.1-1.03-.1-1.45-.3-.4-.83-.62-1.34-.62l-5.06.2c-.3-.4-.62-.7-.82-1.02l1.13-4.95c.12-.52 0-1.04-.4-1.35-.3-.4-.83-.5-1.34-.4l-4.95 1.13c-.3-.3-.72-.52-1.03-.83l.2-5.05c0-.52-.2-1.04-.6-1.35-.52-.2-1.04-.3-1.56-.1l-4.52 2.17c-.42-.2-.83-.4-1.14-.62l-.82-5.06c-.1-.5-.42-.92-.93-1.13-.53-.22-1.04-.1-1.46.2l-4.12 3c-.42-.22-.83-.32-1.24-.43l-1.76-4.74c-.2-.52-.6-.83-1.13-.93-.42-.1-1.04 0-1.35.4l-3.5 3.73c-.42 0-.83-.1-1.25-.1l-2.68-4.34c-.2-.42-.72-.73-1.24-.73-.5 0-1.03.3-1.24.72l-2.68 4.32c-.4 0-.93.1-1.34.1l-3.4-3.7c-.42-.42-.93-.52-1.45-.42-.5.1-.93.4-1.03.93l-1.86 4.74c-.4.1-.72.2-1.13.42l-4.13-3c-.4-.3-1.03-.42-1.44-.2-.52.2-.83.6-.93 1.12l-.83 5.06c-.4.2-.72.4-1.13.62l-4.65-2.17c-.42-.2-.93-.1-1.45.1-.4.3-.62.83-.62 1.35l.2 5.05c-.4.3-.7.52-1.02.83l-4.95-1.14c-.5-.1-1.03 0-1.44.4-.3.32-.5.84-.3 1.36l1.13 4.95c-.32.3-.53.62-.84 1.03l-5.05-.2c-.5 0-1.02.2-1.33.6-.3.43-.3 1.04-.1 1.46l2.16 4.64c-.2.4-.4.72-.62 1.13l-5.04.82c-.52.1-.93.4-1.14.93-.2.4-.1 1.03.2 1.44l2.9 4.12-.3 1.24-4.76 1.75c-.52.22-.83.63-.93 1.15-.1.4 0 .93.4 1.34l3.73 3.5c0 .4-.1.82-.1 1.23l-4.34 2.7c-.4.2-.72.7-.72 1.22s.3 1.04.72 1.24l4.34 2.68c0 .4.1.82.1 1.34l-3.72 3.4c-.4.4-.5.93-.4 1.45.1.4.4.92.92 1.03l4.75 1.75c.1.4.2.83.32 1.24l-2.9 4.12c-.3.4-.4 1.03-.2 1.44.2.52.62.83 1.14.93l5.05.8c.22.43.42.74.63 1.15l-2.17 4.64c-.2.4-.1 1.02.1 1.44.32.4.83.62 1.35.62l5.06-.2c.3.4.52.7.83 1.02l-1.15 4.95c-.1.52 0 1.04.42 1.35.3.4.82.5 1.34.4l4.96-1.13c.3.3.62.52 1.03.83l-.22 5.05c0 .52.2 1.04.62 1.35.42.2 1.03.3 1.45.1l4.64-2.17c.4.22.7.42 1.12.63l.83 5.06c.1.5.4.9.93 1.12.4.2 1.03.1 1.44-.2l4.13-2.9c.4.1.82.2 1.24.32l1.74 4.74c.2.52.62.83 1.03.93.52.1 1.03 0 1.45-.4l3.5-3.72c.42 0 .83.1 1.24.1l2.68 4.34c.2.4.73.72 1.24.72.52 0 1.03-.3 1.24-.72l2.68-4.33c.42 0 .83-.12 1.34-.12l3.4 3.72c.42.4.94.5 1.45.4.4-.1.92-.4 1.02-.92l1.76-4.74 1.24-.3 4.12 2.87c.42.32 1.03.43 1.45.22.5-.2.8-.62.92-1.13l.82-5.07c.4-.2.72-.4 1.14-.62l4.64 2.18c.4.2 1.03.1 1.44-.1.4-.3.62-.83.62-1.35l-.2-5.05c.4-.3.72-.52 1.03-.83l4.96 1.14c.5.1 1.03 0 1.44-.42.3-.3.52-.83.3-1.35l-1.12-4.95c.3-.3.5-.62.82-1.03l5.06.2c.5 0 1.03-.2 1.34-.6.3-.43.3-1.04.1-1.46l-2.16-4.65c.2-.4.4-.72.6-1.14l5.07-.8c.53-.1.94-.42 1.14-.94.2-.4.1-1.03-.2-1.44l-2.9-4.13.32-1.25 4.74-1.75c.52-.1.83-.62.93-1.03.1-.52 0-1.04-.4-1.45l-3.72-3.4c0-.52.1-.93.1-1.34l4.34-2.7c.42-.2.72-.7.72-1.23 0-.5-.3-1.03-.72-1.23zm-29 36c-1.64-.4-2.67-2.06-2.36-3.7.4-1.66 1.96-2.7 3.6-2.38 1.66.4 2.8 2.06 2.38 3.7-.3 1.66-1.96 2.7-3.6 2.38zm-1.43-10c-1.54-.3-2.98.62-3.3 2.16l-1.54 7.12c-4.75 2.17-10.1 3.4-15.58 3.4-5.67 0-11.04-1.23-15.9-3.5l-1.53-7.22c-.3-1.45-1.86-2.48-3.3-2.07l-6.4 1.35c-1.13-1.23-2.27-2.47-3.2-3.92h30.85c.3 0 .5 0 .5-.3v-10.94c0-.32-.2-.42-.5-.42h-9.08v-6.92h9.8c.83 0 4.75.2 5.98 5.16.42 1.55 1.24 6.5 1.86 8.05.52 1.86 2.9 5.36 5.37 5.36h15.47c.1 0 .3 0 .52-.1-1.04 1.55-2.27 2.9-3.5 4.13l-6.5-1.34zm-42.7 9.8c-1.65.4-3.3-.72-3.6-2.37-.42-1.66.6-3.3 2.26-3.62 1.75-.4 3.3.73 3.7 2.38.32 1.66-.7 3.3-2.36 3.62zm-11.76-47.46c.72 1.55 0 3.4-1.55 4.13-1.56.6-3.3 0-4.03-1.56-.73-1.55 0-3.4 1.54-4.13 1.56-.6 3.32.1 4.04 1.56zm-3.6 8.56l6.6-2.9c1.43-.6 2.05-2.26 1.43-3.7l-1.34-3.1h5.37v24.04h-10.73c-1.03-3.3-1.45-6.7-1.45-10.3 0-1.36 0-2.8.2-4.04zm28.98-2.37v-7.02h12.8c.6 0 4.63.73 4.63 3.72 0 2.47-3.1 3.3-5.57 3.3h-11.86zm46.2 6.4c0 .92 0 1.85-.1 2.78h-3.8c-.42 0-.52.3-.52.72V688c0 4.13-2.37 5.06-4.44 5.27-1.96.3-4.23-.83-4.43-1.96-1.14-6.6-3.1-7.94-6.2-10.4 3.82-2.38 7.74-5.9 7.74-10.74 0-5.16-3.5-8.36-5.88-9.9-3.4-2.28-7.13-2.7-8.16-2.7h-40.02c5.46-6.08 12.9-10.3 21.14-11.96l4.75 4.96c1.04 1.13 2.8 1.23 3.93.1l5.26-5.06c11.03 2.07 20.42 8.98 25.9 18.47l-3.63 8.15c-.72 1.45 0 3.1 1.35 3.72l7 3.1c.1 1.23.22 2.47.22 3.7zm-40-41.27c1.22-1.14 3.18-1.14 4.32.1 1.24 1.24 1.13 3.2-.1 4.33-1.14 1.15-3.1 1.15-4.34-.1-1.13-1.23-1.03-3.2.1-4.32zm35.9 28.88c.7-1.54 2.46-2.27 4-1.54 1.56.62 2.28 2.47 1.66 4.02-.72 1.55-2.58 2.27-4.12 1.55-1.55-.63-2.17-2.5-1.55-4.04z" stroke="#000" stroke-opacity="0" stroke-width="1.36"/><path d="M2549.1 940c26.1 0 47.28 31.34 47.28 70s-21.17 70-47.28 70h-141.82c-26.1 0-47.28-31.34-47.28-70s21.17-70 47.28-70z" fill="#834187"/><g><use xlink:href="#t" transform="matrix(1,0,0,1,2365,945) translate(49.98148148148148 70.59027777777777)"/><use xlink:href="#u" transform="matrix(1,0,0,1,2365,945) translate(103.00617283950618 70.59027777777777)"/></g><path d="M1905 599.8h219c3.3 0 6 2.7 6 6V1004c0 3.3 2.7 6 6 6h188.55" stroke="#834187" stroke-width="10" fill="none"/><path d="M1905.13 604.8H1900v-10h5.13z" fill="#834187"/><path d="M2343.82 1010l-14.27 4.64v-9.28z" stroke="#834187" stroke-width="10" fill="#834187"/><defs><path fill="#fff" d="M67-125c0 54 23 88 75 88 28 0 53-7 68-21v-34h-60v-39h108v91C232-14 192 4 140 4 58 4 20-42 15-125 8-236 126-280 215-234c19 10 29 26 37 47l-47 15c-11-23-29-39-63-39-53 1-75 33-75 86" id="v"/><path fill="#fff" d="M133-34C117-15 103 5 69 4 32 3 11-16 11-54c-1-60 55-63 116-61 1-26-3-47-28-47-18 1-26 9-28 27l-52-2c7-38 36-58 82-57s74 22 75 68l1 82c-1 14 12 18 25 15v27c-30 8-71 5-69-32zm-48 3c29 0 43-24 42-57-32 0-66-3-65 30 0 17 8 27 23 27" id="w"/><path fill="#fff" d="M115-3C79 11 28 4 28-45v-112H4v-33h27l15-45h31v45h36v33H77v99c-1 23 16 31 38 25v30" id="x"/><path fill="#fff" d="M185-48c-13 30-37 53-82 52C43 2 14-33 14-96s30-98 90-98c62 0 83 45 84 108H66c0 31 8 55 39 56 18 0 30-7 34-22zm-45-69c5-46-57-63-70-21-2 6-4 13-4 21h74" id="y"/><path fill="#fff" d="M231 0h-52l-39-155L100 0H48L-1-190h46L77-45c9-52 24-97 36-145h53l37 145 32-145h46" id="z"/><path fill="#fff" d="M123 10C108 53 80 86 19 72V37c35 8 53-11 59-39L3-190h52l48 148c12-52 28-100 44-148h51" id="A"/><g id="a"><use transform="matrix(0.07407407407407407,0,0,0.07407407407407407,0,0)" xlink:href="#v"/><use transform="matrix(0.07407407407407407,0,0,0.07407407407407407,20.74074074074074,0)" xlink:href="#w"/><use transform="matrix(0.07407407407407407,0,0,0.07407407407407407,35.55555555555556,0)" xlink:href="#x"/><use transform="matrix(0.07407407407407407,0,0,0.07407407407407407,44.370370370370374,0)" xlink:href="#y"/><use transform="matrix(0.07407407407407407,0,0,0.07407407407407407,59.18518518518519,0)" xlink:href="#z"/><use transform="matrix(0.07407407407407407,0,0,0.07407407407407407,79.92592592592592,0)" xlink:href="#w"/><use transform="matrix(0.07407407407407407,0,0,0.07407407407407407,94.74074074074073,0)" xlink:href="#A"/></g><path fill="#fff" d="M275 0h-61l-44-196L126 0H64L0-248h53L97-49l45-199h58l43 199 44-199h52" id="B"/><path fill="#fff" d="M110-194c64 0 96 36 96 99 0 64-35 99-97 99-61 0-95-36-95-99 0-62 34-99 96-99zm-1 164c35 0 45-28 45-65 0-40-10-65-43-65-34 0-45 26-45 65 0 36 10 65 43 65" id="C"/><path fill="#fff" d="M135-150c-39-12-60 13-60 57V0H25l-1-190h47c2 13-1 29 3 40 6-28 27-53 61-41v41" id="D"/><path fill="#fff" d="M147 0L96-86 75-71V0H25v-261h50v150l67-79h53l-66 74L201 0h-54" id="E"/><path fill="#fff" d="M137-138c1-29-70-34-71-4 15 46 118 7 119 86 1 83-164 76-172 9l43-7c4 19 20 25 44 25 33 8 57-30 24-41C81-84 22-81 20-136c-2-80 154-74 161-7" id="F"/><g id="b"><use transform="matrix(0.07407407407407407,0,0,0.07407407407407407,0,0)" xlink:href="#B"/><use transform="matrix(0.07407407407407407,0,0,0.07407407407407407,24.59259259259259,0)" xlink:href="#C"/><use transform="matrix(0.07407407407407407,0,0,0.07407407407407407,40.81481481481481,0)" xlink:href="#D"/><use transform="matrix(0.07407407407407407,0,0,0.07407407407407407,51.185185185185176,0)" xlink:href="#E"/><use transform="matrix(0.07407407407407407,0,0,0.07407407407407407,65.99999999999999,0)" xlink:href="#y"/><use transform="matrix(0.07407407407407407,0,0,0.07407407407407407,80.8148148148148,0)" xlink:href="#D"/><use transform="matrix(0.07407407407407407,0,0,0.07407407407407407,91.18518518518516,0)" xlink:href="#F"/></g><path fill="#fff" d="M30-248c87 1 191-15 191 75 0 78-77 80-158 76V0H30v-248zm33 125c57 0 124 11 124-50 0-59-68-47-124-48v98" id="G"/><path fill="#fff" d="M114-163C36-179 61-72 57 0H25l-1-190h30c1 12-1 29 2 39 6-27 23-49 58-41v29" id="H"/><path fill="#fff" d="M100-194c62-1 85 37 85 99 1 63-27 99-86 99S16-35 15-95c0-66 28-99 85-99zM99-20c44 1 53-31 53-75 0-43-8-75-51-75s-53 32-53 75 10 74 51 75" id="I"/><path fill="#fff" d="M85-194c31 0 48 13 60 33l-1-100h32l1 261h-30c-2-10 0-23-3-31C134-8 116 4 85 4 32 4 16-35 15-94c0-66 23-100 70-100zm9 24c-40 0-46 34-46 75 0 40 6 74 45 74 42 0 51-32 51-76 0-42-9-74-50-73" id="J"/><path fill="#fff" d="M84 4C-5 8 30-112 23-190h32v120c0 31 7 50 39 49 72-2 45-101 50-169h31l1 190h-30c-1-10 1-25-2-33-11 22-28 36-60 37" id="K"/><path fill="#fff" d="M96-169c-40 0-48 33-48 73s9 75 48 75c24 0 41-14 43-38l32 2c-6 37-31 61-74 61-59 0-76-41-82-99-10-93 101-131 147-64 4 7 5 14 7 22l-32 3c-4-21-16-35-41-35" id="L"/><path fill="#fff" d="M59-47c-2 24 18 29 38 22v24C64 9 27 4 27-40v-127H5v-23h24l9-43h21v43h35v23H59v120" id="M"/><g id="c"><use transform="matrix(0.06172839506172839,0,0,0.06172839506172839,0,0)" xlink:href="#G"/><use transform="matrix(0.06172839506172839,0,0,0.06172839506172839,14.814814814814813,0)" xlink:href="#H"/><use transform="matrix(0.06172839506172839,0,0,0.06172839506172839,22.160493827160494,0)" xlink:href="#I"/><use transform="matrix(0.06172839506172839,0,0,0.06172839506172839,34.50617283950617,0)" xlink:href="#J"/><use transform="matrix(0.06172839506172839,0,0,0.06172839506172839,46.85185185185185,0)" xlink:href="#K"/><use transform="matrix(0.06172839506172839,0,0,0.06172839506172839,59.197530864197525,0)" xlink:href="#L"/><use transform="matrix(0.06172839506172839,0,0,0.06172839506172839,70.30864197530863,0)" xlink:href="#M"/></g><path fill="#fff" d="M137 0h-34L2-248h35l83 218 83-218h36" id="N"/><path fill="#fff" d="M24-231v-30h32v30H24zM24 0v-190h32V0H24" id="O"/><path fill="#fff" d="M100-194c63 0 86 42 84 106H49c0 40 14 67 53 68 26 1 43-12 49-29l28 8c-11 28-37 45-77 45C44 4 14-33 15-96c1-61 26-98 85-98zm52 81c6-60-76-77-97-28-3 7-6 17-6 28h103" id="P"/><path fill="#fff" d="M206 0h-36l-40-164L89 0H53L-1-190h32L70-26l43-164h34l41 164 42-164h31" id="Q"/><g id="d"><use transform="matrix(0.06172839506172839,0,0,0.06172839506172839,0,0)" xlink:href="#N"/><use transform="matrix(0.06172839506172839,0,0,0.06172839506172839,14.382716049382715,0)" xlink:href="#O"/><use transform="matrix(0.06172839506172839,0,0,0.06172839506172839,19.25925925925926,0)" xlink:href="#P"/><use transform="matrix(0.06172839506172839,0,0,0.06172839506172839,31.604938271604937,0)" xlink:href="#Q"/></g><path fill="#fff" d="M205 0l-28-72H64L36 0H1l101-248h38L239 0h-34zm-38-99l-47-123c-12 45-31 82-46 123h93" id="R"/><path fill="#fff" d="M115-194c55 1 70 41 70 98S169 2 115 4C84 4 66-9 55-30l1 105H24l-1-265h31l2 30c10-21 28-34 59-34zm-8 174c40 0 45-34 45-75s-6-73-45-74c-42 0-51 32-51 76 0 43 10 73 51 73" id="S"/><g id="e"><use transform="matrix(0.06172839506172839,0,0,0.06172839506172839,0,0)" xlink:href="#R"/><use transform="matrix(0.06172839506172839,0,0,0.06172839506172839,14.814814814814813,0)" xlink:href="#S"/><use transform="matrix(0.06172839506172839,0,0,0.06172839506172839,27.160493827160494,0)" xlink:href="#S"/></g><path fill="#fff" d="M33 0v-248h34V0H33" id="T"/><path fill="#fff" d="M117-194c89-4 53 116 60 194h-32v-121c0-31-8-49-39-48C34-167 62-67 57 0H25l-1-190h30c1 10-1 24 2 32 11-22 29-35 61-36" id="U"/><path fill="#fff" d="M135-143c-3-34-86-38-87 0 15 53 115 12 119 90S17 21 10-45l28-5c4 36 97 45 98 0-10-56-113-15-118-90-4-57 82-63 122-42 12 7 21 19 24 35" id="V"/><path fill="#fff" d="M141-36C126-15 110 5 73 4 37 3 15-17 15-53c-1-64 63-63 125-63 3-35-9-54-41-54-24 1-41 7-42 31l-33-3c5-37 33-52 76-52 45 0 72 20 72 64v82c-1 20 7 32 28 27v20c-31 9-61-2-59-35zM48-53c0 20 12 33 32 33 41-3 63-29 60-74-43 2-92-5-92 41" id="W"/><path fill="#fff" d="M24 0v-261h32V0H24" id="X"/><g id="f"><use transform="matrix(0.06172839506172839,0,0,0.06172839506172839,0,0)" xlink:href="#T"/><use transform="matrix(0.06172839506172839,0,0,0.06172839506172839,6.172839506172839,0)" xlink:href="#U"/><use transform="matrix(0.06172839506172839,0,0,0.06172839506172839,18.51851851851852,0)" xlink:href="#V"/><use transform="matrix(0.06172839506172839,0,0,0.06172839506172839,29.62962962962963,0)" xlink:href="#M"/><use transform="matrix(0.06172839506172839,0,0,0.06172839506172839,35.80246913580247,0)" xlink:href="#W"/><use transform="matrix(0.06172839506172839,0,0,0.06172839506172839,48.148148148148145,0)" xlink:href="#X"/><use transform="matrix(0.06172839506172839,0,0,0.06172839506172839,53.02469135802469,0)" xlink:href="#X"/></g><path fill="#fff" d="M106-169C34-169 62-67 57 0H25v-261h32l-1 103c12-21 28-36 61-36 89 0 53 116 60 194h-32v-121c2-32-8-49-39-48" id="Y"/><g id="g"><use transform="matrix(0.06172839506172839,0,0,0.06172839506172839,0,0)" xlink:href="#G"/><use transform="matrix(0.06172839506172839,0,0,0.06172839506172839,14.814814814814813,0)" xlink:href="#K"/><use transform="matrix(0.06172839506172839,0,0,0.06172839506172839,27.160493827160494,0)" xlink:href="#H"/><use transform="matrix(0.06172839506172839,0,0,0.06172839506172839,34.50617283950617,0)" xlink:href="#L"/><use transform="matrix(0.06172839506172839,0,0,0.06172839506172839,45.61728395061728,0)" xlink:href="#Y"/><use transform="matrix(0.06172839506172839,0,0,0.06172839506172839,57.962962962962955,0)" xlink:href="#W"/><use transform="matrix(0.06172839506172839,0,0,0.06172839506172839,70.30864197530863,0)" xlink:href="#V"/><use transform="matrix(0.06172839506172839,0,0,0.06172839506172839,81.41975308641975,0)" xlink:href="#P"/></g><path fill="#333" d="M30-248c87 1 191-15 191 75 0 78-77 80-158 76V0H30v-248zm33 125c57 0 124 11 124-50 0-59-68-47-124-48v98" id="Z"/><path fill="#333" d="M141-36C126-15 110 5 73 4 37 3 15-17 15-53c-1-64 63-63 125-63 3-35-9-54-41-54-24 1-41 7-42 31l-33-3c5-37 33-52 76-52 45 0 72 20 72 64v82c-1 20 7 32 28 27v20c-31 9-61-2-59-35zM48-53c0 20 12 33 32 33 41-3 63-29 60-74-43 2-92-5-92 41" id="aa"/><path fill="#333" d="M114-163C36-179 61-72 57 0H25l-1-190h30c1 12-1 29 2 39 6-27 23-49 58-41v29" id="ab"/><path fill="#333" d="M59-47c-2 24 18 29 38 22v24C64 9 27 4 27-40v-127H5v-23h24l9-43h21v43h35v23H59v120" id="ac"/><path fill="#333" d="M117-194c89-4 53 116 60 194h-32v-121c0-31-8-49-39-48C34-167 62-67 57 0H25l-1-190h30c1 10-1 24 2 32 11-22 29-35 61-36" id="ad"/><path fill="#333" d="M100-194c63 0 86 42 84 106H49c0 40 14 67 53 68 26 1 43-12 49-29l28 8c-11 28-37 45-77 45C44 4 14-33 15-96c1-61 26-98 85-98zm52 81c6-60-76-77-97-28-3 7-6 17-6 28h103" id="ae"/><g id="h"><use transform="matrix(0.06172839506172839,0,0,0.06172839506172839,0,0)" xlink:href="#Z"/><use transform="matrix(0.06172839506172839,0,0,0.06172839506172839,14.814814814814813,0)" xlink:href="#aa"/><use transform="matrix(0.06172839506172839,0,0,0.06172839506172839,27.160493827160494,0)" xlink:href="#ab"/><use transform="matrix(0.06172839506172839,0,0,0.06172839506172839,34.50617283950617,0)" xlink:href="#ac"/><use transform="matrix(0.06172839506172839,0,0,0.06172839506172839,40.67901234567901,0)" xlink:href="#ad"/><use transform="matrix(0.06172839506172839,0,0,0.06172839506172839,53.02469135802469,0)" xlink:href="#ae"/><use transform="matrix(0.06172839506172839,0,0,0.06172839506172839,65.37037037037037,0)" xlink:href="#ab"/></g><path fill="#333" d="M96-169c-40 0-48 33-48 73s9 75 48 75c24 0 41-14 43-38l32 2c-6 37-31 61-74 61-59 0-76-41-82-99-10-93 101-131 147-64 4 7 5 14 7 22l-32 3c-4-21-16-35-41-35" id="af"/><path fill="#333" d="M100-194c62-1 85 37 85 99 1 63-27 99-86 99S16-35 15-95c0-66 28-99 85-99zM99-20c44 1 53-31 53-75 0-43-8-75-51-75s-53 32-53 75 10 74 51 75" id="ag"/><path fill="#333" d="M101-234c-31-9-42 10-38 44h38v23H63V0H32v-167H5v-23h27c-7-52 17-82 69-68v24" id="ah"/><path fill="#333" d="M24-231v-30h32v30H24zM24 0v-190h32V0H24" id="ai"/><path fill="#333" d="M177-190C167-65 218 103 67 71c-23-6-38-20-44-43l32-5c15 47 100 32 89-28v-30C133-14 115 1 83 1 29 1 15-40 15-95c0-56 16-97 71-98 29-1 48 16 59 35 1-10 0-23 2-32h30zM94-22c36 0 50-32 50-73 0-42-14-75-50-75-39 0-46 34-46 75s6 73 46 73" id="aj"/><g id="i"><use transform="matrix(0.06172839506172839,0,0,0.06172839506172839,0,0)" xlink:href="#af"/><use transform="matrix(0.06172839506172839,0,0,0.06172839506172839,11.11111111111111,0)" xlink:href="#ag"/><use transform="matrix(0.06172839506172839,0,0,0.06172839506172839,23.45679012345679,0)" xlink:href="#ad"/><use transform="matrix(0.06172839506172839,0,0,0.06172839506172839,35.80246913580247,0)" xlink:href="#ah"/><use transform="matrix(0.06172839506172839,0,0,0.06172839506172839,41.97530864197531,0)" xlink:href="#ai"/><use transform="matrix(0.06172839506172839,0,0,0.06172839506172839,46.851851851851855,0)" xlink:href="#aj"/></g><path fill="#333" d="M232-93c-1 65-40 97-104 97C67 4 28-28 28-90v-158h33c8 89-33 224 67 224 102 0 64-133 71-224h33v155" id="ak"/><path fill="#333" d="M135-143c-3-34-86-38-87 0 15 53 115 12 119 90S17 21 10-45l28-5c4 36 97 45 98 0-10-56-113-15-118-90-4-57 82-63 122-42 12 7 21 19 24 35" id="al"/><g id="j"><use transform="matrix(0.06172839506172839,0,0,0.06172839506172839,0,0)" xlink:href="#ak"/><use transform="matrix(0.06172839506172839,0,0,0.06172839506172839,15.987654320987653,0)" xlink:href="#al"/><use transform="matrix(0.06172839506172839,0,0,0.06172839506172839,27.098765432098766,0)" xlink:href="#ae"/><use transform="matrix(0.06172839506172839,0,0,0.06172839506172839,39.44444444444444,0)" xlink:href="#ab"/></g><g id="k"><use transform="matrix(0.06172839506172839,0,0,0.06172839506172839,0,0)" xlink:href="#af"/><use transform="matrix(0.06172839506172839,0,0,0.06172839506172839,11.11111111111111,0)" xlink:href="#ag"/><use transform="matrix(0.06172839506172839,0,0,0.06172839506172839,23.45679012345679,0)" xlink:href="#ad"/><use transform="matrix(0.06172839506172839,0,0,0.06172839506172839,35.80246913580247,0)" xlink:href="#al"/><use transform="matrix(0.06172839506172839,0,0,0.06172839506172839,46.91358024691358,0)" xlink:href="#ae"/><use transform="matrix(0.06172839506172839,0,0,0.06172839506172839,59.25925925925926,0)" xlink:href="#ad"/><use transform="matrix(0.06172839506172839,0,0,0.06172839506172839,71.60493827160494,0)" xlink:href="#ac"/></g><path fill="#fff" d="M108 0H70L1-190h34L89-25l56-165h34" id="am"/><path fill="#fff" d="M177-190C167-65 218 103 67 71c-23-6-38-20-44-43l32-5c15 47 100 32 89-28v-30C133-14 115 1 83 1 29 1 15-40 15-95c0-56 16-97 71-98 29-1 48 16 59 35 1-10 0-23 2-32h30zM94-22c36 0 50-32 50-73 0-42-14-75-50-75-39 0-46 34-46 75s6 73 46 73" id="an"/><g id="l"><use transform="matrix(0.06172839506172839,0,0,0.06172839506172839,0,0)" xlink:href="#R"/><use transform="matrix(0.06172839506172839,0,0,0.06172839506172839,14.814814814814813,0)" xlink:href="#J"/><use transform="matrix(0.06172839506172839,0,0,0.06172839506172839,27.160493827160494,0)" xlink:href="#am"/><use transform="matrix(0.06172839506172839,0,0,0.06172839506172839,38.27160493827161,0)" xlink:href="#P"/><use transform="matrix(0.06172839506172839,0,0,0.06172839506172839,50.617283950617285,0)" xlink:href="#H"/><use transform="matrix(0.06172839506172839,0,0,0.06172839506172839,57.96296296296296,0)" xlink:href="#M"/><use transform="matrix(0.06172839506172839,0,0,0.06172839506172839,64.1358024691358,0)" xlink:href="#O"/><use transform="matrix(0.06172839506172839,0,0,0.06172839506172839,69.01234567901234,0)" xlink:href="#V"/><use transform="matrix(0.06172839506172839,0,0,0.06172839506172839,80.12345679012346,0)" xlink:href="#O"/><use transform="matrix(0.06172839506172839,0,0,0.06172839506172839,85,0)" xlink:href="#U"/><use transform="matrix(0.06172839506172839,0,0,0.06172839506172839,97.34567901234568,0)" xlink:href="#an"/></g><path fill="#fff" d="M179-190L93 31C79 59 56 82 12 73V49c39 6 53-20 64-50L1-190h34L92-34l54-156h33" id="ao"/><g id="m"><use transform="matrix(0.06172839506172839,0,0,0.06172839506172839,0,0)" xlink:href="#R"/><use transform="matrix(0.06172839506172839,0,0,0.06172839506172839,14.814814814814813,0)" xlink:href="#U"/><use transform="matrix(0.06172839506172839,0,0,0.06172839506172839,27.160493827160494,0)" xlink:href="#W"/><use transform="matrix(0.06172839506172839,0,0,0.06172839506172839,39.50617283950617,0)" xlink:href="#X"/><use transform="matrix(0.06172839506172839,0,0,0.06172839506172839,44.382716049382715,0)" xlink:href="#ao"/><use transform="matrix(0.06172839506172839,0,0,0.06172839506172839,55.49382716049382,0)" xlink:href="#M"/><use transform="matrix(0.06172839506172839,0,0,0.06172839506172839,61.666666666666664,0)" xlink:href="#O"/><use transform="matrix(0.06172839506172839,0,0,0.06172839506172839,66.5432098765432,0)" xlink:href="#L"/><use transform="matrix(0.06172839506172839,0,0,0.06172839506172839,77.65432098765432,0)" xlink:href="#V"/></g><path fill="#fff" d="M30 0v-248h187v28H63v79h144v27H63v87h162V0H30" id="ap"/><path fill="#fff" d="M210-169c-67 3-38 105-44 169h-31v-121c0-29-5-50-35-48C34-165 62-65 56 0H25l-1-190h30c1 10-1 24 2 32 10-44 99-50 107 0 11-21 27-35 58-36 85-2 47 119 55 194h-31v-121c0-29-5-49-35-48" id="aq"/><g id="n"><use transform="matrix(0.06172839506172839,0,0,0.06172839506172839,0,0)" xlink:href="#ap"/><use transform="matrix(0.06172839506172839,0,0,0.06172839506172839,14.814814814814813,0)" xlink:href="#aq"/><use transform="matrix(0.06172839506172839,0,0,0.06172839506172839,33.2716049382716,0)" xlink:href="#W"/><use transform="matrix(0.06172839506172839,0,0,0.06172839506172839,45.61728395061728,0)" xlink:href="#O"/><use transform="matrix(0.06172839506172839,0,0,0.06172839506172839,50.49382716049382,0)" xlink:href="#X"/><use transform="matrix(0.06172839506172839,0,0,0.06172839506172839,55.37037037037037,0)" xlink:href="#V"/></g><path fill="#333" d="M24 0v-248h195v40H76v63h132v40H76v65h150V0H24" id="ar"/><path fill="#333" d="M115-3C79 11 28 4 28-45v-112H4v-33h27l15-45h31v45h36v33H77v99c-1 23 16 31 38 25v30" id="as"/><path fill="#333" d="M114-157C55-157 80-60 75 0H25v-261h50l-1 109c12-26 28-41 61-42 86-1 58 113 63 194h-50c-7-57 23-157-34-157" id="at"/><path fill="#333" d="M185-48c-13 30-37 53-82 52C43 2 14-33 14-96s30-98 90-98c62 0 83 45 84 108H66c0 31 8 55 39 56 18 0 30-7 34-22zm-45-69c5-46-57-63-70-21-2 6-4 13-4 21h74" id="au"/><path fill="#333" d="M135-150c-39-12-60 13-60 57V0H25l-1-190h47c2 13-1 29 3 40 6-28 27-53 61-41v41" id="av"/><path fill="#333" d="M85 4C-2 5 27-109 22-190h50c7 57-23 150 33 157 60-5 35-97 40-157h50l1 190h-47c-2-12 1-28-3-38-12 25-28 42-61 42" id="aw"/><path fill="#333" d="M220-157c-53 9-28 100-34 157h-49v-107c1-27-5-49-29-50C55-147 81-57 75 0H25l-1-190h47c2 12-1 28 3 38 10-53 101-56 108 0 13-22 24-43 59-42 82 1 51 116 57 194h-49v-107c-1-25-5-48-29-50" id="ax"/><g id="o"><use transform="matrix(0.07407407407407407,0,0,0.07407407407407407,0,0)" xlink:href="#ar"/><use transform="matrix(0.07407407407407407,0,0,0.07407407407407407,17.77777777777778,0)" xlink:href="#as"/><use transform="matrix(0.07407407407407407,0,0,0.07407407407407407,26.592592592592595,0)" xlink:href="#at"/><use transform="matrix(0.07407407407407407,0,0,0.07407407407407407,42.814814814814824,0)" xlink:href="#au"/><use transform="matrix(0.07407407407407407,0,0,0.07407407407407407,57.62962962962963,0)" xlink:href="#av"/><use transform="matrix(0.07407407407407407,0,0,0.07407407407407407,68,0)" xlink:href="#au"/><use transform="matrix(0.07407407407407407,0,0,0.07407407407407407,82.81481481481481,0)" xlink:href="#aw"/><use transform="matrix(0.07407407407407407,0,0,0.07407407407407407,99.03703703703704,0)" xlink:href="#ax"/></g><path fill="#333" d="M182-130c37 4 62 22 62 59C244 23 116-4 24 0v-248c84 5 203-23 205 63 0 31-19 50-47 55zM76-148c40-3 101 13 101-30 0-44-60-28-101-31v61zm0 110c48-3 116 14 116-37 0-48-69-32-116-35v72" id="ay"/><path fill="#333" d="M25 0v-261h50V0H25" id="az"/><path fill="#333" d="M110-194c64 0 96 36 96 99 0 64-35 99-97 99-61 0-95-36-95-99 0-62 34-99 96-99zm-1 164c35 0 45-28 45-65 0-40-10-65-43-65-34 0-45 26-45 65 0 36 10 65 43 65" id="aA"/><path fill="#333" d="M190-63c-7 42-38 67-86 67-59 0-84-38-90-98-12-110 154-137 174-36l-49 2c-2-19-15-32-35-32-30 0-35 28-38 64-6 74 65 87 74 30" id="aB"/><path fill="#333" d="M147 0L96-86 75-71V0H25v-261h50v150l67-79h53l-66 74L201 0h-54" id="aC"/><path fill="#333" d="M133-34C117-15 103 5 69 4 32 3 11-16 11-54c-1-60 55-63 116-61 1-26-3-47-28-47-18 1-26 9-28 27l-52-2c7-38 36-58 82-57s74 22 75 68l1 82c-1 14 12 18 25 15v27c-30 8-71 5-69-32zm-48 3c29 0 43-24 42-57-32 0-66-3-65 30 0 17 8 27 23 27" id="aD"/><path fill="#333" d="M25-224v-37h50v37H25zM25 0v-190h50V0H25" id="aE"/><path fill="#333" d="M135-194c87-1 58 113 63 194h-50c-7-57 23-157-34-157-59 0-34 97-39 157H25l-1-190h47c2 12-1 28 3 38 12-26 28-41 61-42" id="aF"/><g id="p"><use transform="matrix(0.07407407407407407,0,0,0.07407407407407407,0,0)" xlink:href="#ay"/><use transform="matrix(0.07407407407407407,0,0,0.07407407407407407,19.185185185185183,0)" xlink:href="#az"/><use transform="matrix(0.07407407407407407,0,0,0.07407407407407407,26.592592592592588,0)" xlink:href="#aA"/><use transform="matrix(0.07407407407407407,0,0,0.07407407407407407,42.81481481481481,0)" xlink:href="#aB"/><use transform="matrix(0.07407407407407407,0,0,0.07407407407407407,57.62962962962962,0)" xlink:href="#aC"/><use transform="matrix(0.07407407407407407,0,0,0.07407407407407407,72.44444444444443,0)" xlink:href="#aB"/><use transform="matrix(0.07407407407407407,0,0,0.07407407407407407,87.25925925925924,0)" xlink:href="#at"/><use transform="matrix(0.07407407407407407,0,0,0.07407407407407407,103.48148148148145,0)" xlink:href="#aD"/><use transform="matrix(0.07407407407407407,0,0,0.07407407407407407,118.29629629629628,0)" xlink:href="#aE"/><use transform="matrix(0.07407407407407407,0,0,0.07407407407407407,125.70370370370368,0)" xlink:href="#aF"/></g><path fill="#fff" d="M67-125c0 53 21 87 73 88 37 1 54-22 65-47l45 17C233-25 199 4 140 4 58 4 20-42 15-125 8-235 124-281 211-232c18 10 29 29 36 50l-46 12c-8-25-30-41-62-41-52 0-71 34-72 86" id="aG"/><path fill="#fff" d="M190-63c-7 42-38 67-86 67-59 0-84-38-90-98-12-110 154-137 174-36l-49 2c-2-19-15-32-35-32-30 0-35 28-38 64-6 74 65 87 74 30" id="aH"/><path fill="#fff" d="M114-157C55-157 80-60 75 0H25v-261h50l-1 109c12-26 28-41 61-42 86-1 58 113 63 194h-50c-7-57 23-157-34-157" id="aI"/><g id="q"><use transform="matrix(0.06172839506172839,0,0,0.06172839506172839,0,0)" xlink:href="#aG"/><use transform="matrix(0.06172839506172839,0,0,0.06172839506172839,15.987654320987653,0)" xlink:href="#w"/><use transform="matrix(0.06172839506172839,0,0,0.06172839506172839,28.333333333333332,0)" xlink:href="#aH"/><use transform="matrix(0.06172839506172839,0,0,0.06172839506172839,40.67901234567901,0)" xlink:href="#aI"/><use transform="matrix(0.06172839506172839,0,0,0.06172839506172839,54.19753086419753,0)" xlink:href="#y"/></g><path fill="#fff" d="M195 0l-88-114-31 24V0H24v-248h52v113l112-113h60L142-143 257 0h-62" id="aJ"/><path fill="#fff" d="M121-226c-27-7-43 5-38 36h38v33H83V0H34v-157H6v-33h28c-9-59 32-81 87-68v32" id="aK"/><g id="r"><use transform="matrix(0.06172839506172839,0,0,0.06172839506172839,0,0)" xlink:href="#aJ"/><use transform="matrix(0.06172839506172839,0,0,0.06172839506172839,15.987654320987653,0)" xlink:href="#w"/><use transform="matrix(0.06172839506172839,0,0,0.06172839506172839,28.333333333333332,0)" xlink:href="#aK"/><use transform="matrix(0.06172839506172839,0,0,0.06172839506172839,35.67901234567901,0)" xlink:href="#E"/><use transform="matrix(0.06172839506172839,0,0,0.06172839506172839,48.02469135802469,0)" xlink:href="#w"/></g><path fill="#fff" d="M84 4C32 4 15-41 15-95c0-55 18-99 73-99 29 0 47 12 58 34l2-30h48l-1 265h-49V-32C136-9 114 4 84 4zm21-34c32 0 41-29 41-66 0-36-9-64-40-64-33 0-39 30-40 65 0 43 13 65 39 65" id="aL"/><path fill="#fff" d="M85 4C-2 5 27-109 22-190h50c7 57-23 150 33 157 60-5 35-97 40-157h50l1 190h-47c-2-12 1-28-3-38-12 25-28 42-61 42" id="aM"/><g id="s"><use transform="matrix(0.06172839506172839,0,0,0.06172839506172839,0,0)" xlink:href="#aL"/><use transform="matrix(0.06172839506172839,0,0,0.06172839506172839,13.518518518518517,0)" xlink:href="#aM"/><use transform="matrix(0.06172839506172839,0,0,0.06172839506172839,27.037037037037035,0)" xlink:href="#y"/><use transform="matrix(0.06172839506172839,0,0,0.06172839506172839,39.382716049382715,0)" xlink:href="#aM"/><use transform="matrix(0.06172839506172839,0,0,0.06172839506172839,52.901234567901234,0)" xlink:href="#y"/></g><path fill="#fff" d="M30-248c118-7 216 8 213 122C240-48 200 0 122 0H30v-248zM63-27c89 8 146-16 146-99s-60-101-146-95v194" id="aN"/><g id="t"><use transform="matrix(0.06172839506172839,0,0,0.06172839506172839,0,0)" xlink:href="#aN"/><use transform="matrix(0.06172839506172839,0,0,0.06172839506172839,15.987654320987653,0)" xlink:href="#W"/><use transform="matrix(0.06172839506172839,0,0,0.06172839506172839,28.333333333333332,0)" xlink:href="#M"/><use transform="matrix(0.06172839506172839,0,0,0.06172839506172839,34.50617283950617,0)" xlink:href="#W"/></g><g id="u"><use transform="matrix(0.06172839506172839,0,0,0.06172839506172839,0,0)" xlink:href="#V"/><use transform="matrix(0.06172839506172839,0,0,0.06172839506172839,11.11111111111111,0)" xlink:href="#M"/><use transform="matrix(0.06172839506172839,0,0,0.06172839506172839,17.28395061728395,0)" xlink:href="#I"/><use transform="matrix(0.06172839506172839,0,0,0.06172839506172839,29.629629629629626,0)" xlink:href="#H"/><use transform="matrix(0.06172839506172839,0,0,0.06172839506172839,36.9753086419753,0)" xlink:href="#W"/><use transform="matrix(0.06172839506172839,0,0,0.06172839506172839,49.32098765432098,0)" xlink:href="#an"/><use transform="matrix(0.06172839506172839,0,0,0.06172839506172839,61.66666666666666,0)" xlink:href="#P"/></g></defs></g></svg>